<?xml version="1.0" encoding="UTF-8"?>
<svg version="1.1" xmlns="http://www.w3.org/2000/svg" width="512" height="512">
<path d="M0 0 C0.73907593 -0.15040237 1.47815186 -0.30080475 2.23962402 -0.45576477 C5.4172815 -1.08227115 8.36422004 -1.13459808 11.60351562 -1.14526367 C13.58212585 -1.15483345 13.58212585 -1.15483345 15.60070801 -1.16459656 C17.0358883 -1.16612641 18.47106908 -1.16723974 19.90625 -1.16796875 C21.39253775 -1.17118671 22.8788252 -1.17455118 24.3651123 -1.17805481 C27.48202242 -1.184037 30.59890486 -1.18589588 33.71582031 -1.18530273 C37.67497364 -1.18520171 41.63394522 -1.19879579 45.59305573 -1.21607494 C48.66634912 -1.22729999 51.73960021 -1.22921868 54.81291199 -1.22869301 C56.27028524 -1.22985961 57.72766008 -1.23420554 59.18501282 -1.24202538 C68.30146701 -1.28632489 77.0221931 -0.6496916 86 1 C87.04949829 1.1575325 88.09899658 1.315065 89.18029785 1.47737122 C92.53585798 2.09932071 94.92170682 3.36975879 97.875 5.0625 C98.84179688 5.61035156 99.80859375 6.15820312 100.8046875 6.72265625 C101.89136719 7.35494141 101.89136719 7.35494141 103 8 C103 8.66 103 9.32 103 10 C103.804375 10.12375 104.60875 10.2475 105.4375 10.375 C106.283125 10.58125 107.12875 10.7875 108 11 C108.33 11.66 108.66 12.32 109 13 C109.99 13.33 110.98 13.66 112 14 C112.33 14.99 112.66 15.98 113 17 C114.32529779 17.36397067 115.66016994 17.69382311 117 18 C118.66796875 19.26953125 118.66796875 19.26953125 120.1875 20.8125 C120.95126953 21.56466797 120.95126953 21.56466797 121.73046875 22.33203125 C123 24 123 24 123.4765625 25.91796875 C124.15923744 28.63338474 125.50354536 30.2695965 127.1875 32.5 C137.75692584 47.33618177 141.64533876 63.29887653 142.57582092 81.30480957 C142.62567798 82.22152892 142.67553503 83.13824826 142.7269029 84.08274698 C142.89261586 87.1442048 143.0538592 90.20588111 143.21508789 93.26757812 C143.33320913 95.467731 143.4515883 97.66787004 143.57020569 99.86799622 C143.8913829 105.84191516 144.20849261 111.81604338 144.52454305 117.79023552 C144.78939249 122.79144491 145.05597892 127.79256118 145.32248396 132.79368258 C145.91619845 143.93735383 146.50699642 155.08117716 147.0954879 166.22512525 C147.13076644 166.89317279 147.16604499 167.56122032 147.20239258 168.24951172 C147.23771445 168.91838962 147.27303633 169.58726752 147.30942857 170.27641445 C147.87988373 181.07596696 148.45642513 191.87518457 149.0358004 202.67426187 C149.63259473 213.79932215 150.22465898 224.92462709 150.81227487 236.05017614 C151.14144987 242.28116853 151.47244243 248.51205035 151.80821419 254.74269104 C152.12473751 260.61933224 152.4352606 266.49626229 152.74147606 272.37344933 C152.85385558 274.51183274 152.96823853 276.65011214 153.08495331 278.78826332 C153.45184472 285.52372707 153.76613208 292.25855353 154 299 C154.05408622 300.52316676 154.05408622 300.52316676 154.10926509 302.07710457 C154.20541164 305.16265519 154.26720069 308.24701474 154.31785583 311.33361816 C154.34729406 312.25699777 154.37673229 313.18037738 154.40706259 314.13173819 C154.47018425 321.91885197 152.56404968 328.54162502 147.89453125 334.83984375 C147.20746094 335.53207031 146.52039063 336.22429687 145.8125 336.9375 C142.74243282 340.04224249 142.74243282 340.04224249 141 344 C136.2283424 347.47981859 131.78897798 348.48241483 126 348 C126 348.66 126 349.32 126 350 C106.53 350 87.06 350 67 350 C67 382.01 67 414.02 67 447 C66.34 447 65.68 447 65 447 C64.78085937 447.71285156 64.56171875 448.42570312 64.3359375 449.16015625 C62.19589879 455.62376909 59.85255027 460.23236936 55 465 C54.42121094 465.68070557 53.84242188 466.36141113 53.24609375 467.06274414 C50.46845964 469.45845356 49.1234106 469.51420439 45.5 469.53125 C44.448125 469.53640625 43.39625 469.5415625 42.3125 469.546875 C41.219375 469.53140625 40.12625 469.5159375 39 469.5 C37.906875 469.51546875 36.81375 469.5309375 35.6875 469.546875 C34.635625 469.54171875 33.58375 469.5365625 32.5 469.53125 C31.5409375 469.52673828 30.581875 469.52222656 29.59375 469.51757812 C26.29386297 468.85909163 25.14689665 467.52493455 23 465 C22.2265625 464.24009766 22.2265625 464.24009766 21.4375 463.46484375 C16.86420912 458.60572219 14.94203369 453.31732136 13 447 C12.34 447 11.68 447 11 447 C11 414.99 11 382.98 11 350 C-8.47 350 -27.94 350 -48 350 C-48 349.34 -48 348.68 -48 348 C-48.969375 348.103125 -49.93875 348.20625 -50.9375 348.3125 C-55.9256789 348.32267996 -60.11648099 346.00557479 -64 343 C-65.08203125 341.0234375 -65.08203125 341.0234375 -66 339 C-66.9294393 337.93247257 -67.88956715 336.89106807 -68.875 335.875 C-75.17716518 328.62812428 -76.61501918 320.67541188 -76.31587219 311.32469177 C-76.29947986 310.32888609 -76.28308753 309.33308041 -76.26619846 308.30709881 C-76.20495587 305.20326215 -76.10903486 302.10250155 -76 299 C-75.95178561 297.58015458 -75.95178561 297.58015458 -75.90259719 296.13162541 C-75.65671488 289.35201694 -75.30789207 282.57917729 -74.94604492 275.80493164 C-74.83220892 273.59109918 -74.71886665 271.37724128 -74.60597229 269.1633606 C-74.30162324 263.22757748 -73.9896879 257.29221781 -73.67564559 251.35694051 C-73.41271292 246.37681391 -73.15323891 241.39650919 -72.89361554 236.41620916 C-72.24588561 223.99509821 -71.59036795 211.57441001 -70.93147681 199.15388691 C-70.36178831 188.40955608 -69.80325692 177.66467814 -69.24979349 166.91950042 C-68.67827197 155.82605807 -68.09846183 144.73307138 -67.51066095 133.64047903 C-67.18203478 127.43661311 -66.85661701 121.23262229 -66.53954124 115.02815437 C-66.24132951 109.19893385 -65.93263029 103.37035861 -65.61614037 97.54210281 C-65.50238678 95.41558779 -65.39222904 93.28887657 -65.28612137 91.16196632 C-64.17391624 68.95816706 -61.57703721 49.01624361 -47.953125 30.8046875 C-46.14970317 28.21497376 -45.13994896 25.91320291 -44 23 C-42.6328125 21.234375 -42.6328125 21.234375 -41.125 19.75 C-40.63257813 19.24984375 -40.14015625 18.7496875 -39.6328125 18.234375 C-38 17 -38 17 -35.8671875 16.515625 C-35.25101563 16.34546875 -34.63484375 16.1753125 -34 16 C-33.505 14.515 -33.505 14.515 -33 13 C-32.01 12.67 -31.02 12.34 -30 12 C-29.67 11.34 -29.34 10.68 -29 10 C-28.38125 9.855625 -27.7625 9.71125 -27.125 9.5625 C-24.94681476 9.185417 -24.94681476 9.185417 -23.69921875 7.625 C-18.0486527 2.22124028 -7.55595976 -1.74368302 0 0 Z M-9 58 C-1.67753847 59.97572514 4.50156373 61.61730978 12 60 C11.01021497 57.87258739 11.01021497 57.87258739 9 56 C6.3391732 55.64642166 4.14426218 55.52930289 1.5 55.625 C0.82324219 55.62628906 0.14648438 55.62757812 -0.55078125 55.62890625 C-4.22019507 55.69404377 -5.87795899 55.91863933 -9 58 Z M70 56 C70 56.33 70 56.66 70 57 C74.62 57 79.24 57 84 57 C84 56.67 84 56.34 84 56 C79.38 56 74.76 56 70 56 Z M66 60 C71.02125926 60.77916092 74.97703996 61.13016601 80 60 C80 59.67 80 59.34 80 59 C78.23086176 58.77773136 76.45955629 58.57266127 74.6875 58.375 C73.20830078 58.20097656 73.20830078 58.20097656 71.69921875 58.0234375 C68.77342584 57.74523005 68.77342584 57.74523005 66 60 Z M80 58 C84 59 84 59 84 59 Z M14 59 C13.34 59.66 12.68 60.32 12 61 C13.11806432 63.51564471 14.29533983 65.35798767 16.0625 67.5 C19.59575655 72.05904071 19.16510457 76.85629215 19.20532227 82.44042969 C19.21522186 83.28957443 19.22512146 84.13871918 19.23532104 85.01359558 C19.26687247 87.81632716 19.29166835 90.61907568 19.31640625 93.421875 C19.33698126 95.36672401 19.35797788 97.3115686 19.37937927 99.25640869 C19.43454338 104.37242045 19.48397763 109.48847219 19.53222656 114.60455322 C19.58248291 119.82624871 19.6381474 125.04788622 19.69335938 130.26953125 C19.80087171 140.51297129 19.90233207 150.7564617 20 161 C20.33 161 20.66 161 21 161 C21.01030746 159.92338104 21.02061493 158.84676208 21.03123474 157.73751831 C21.12904421 147.58519224 21.23178534 137.43292643 21.33933926 127.28069878 C21.39447396 122.06150249 21.44787868 116.8423005 21.49731445 111.62304688 C21.54509763 106.58501548 21.59744515 101.54705019 21.65294075 96.50909805 C21.67330118 94.58822402 21.69202447 92.6673319 21.70907402 90.74642563 C21.73325818 88.05337756 21.76329301 85.36045293 21.79467773 82.66748047 C21.8004332 81.87553787 21.80618866 81.08359528 21.81211853 80.26765442 C21.85608219 76.94290238 22.01107051 73.94052923 22.62220764 70.65750122 C23.30059963 67.79213826 23.30059963 67.79213826 21.25 64.8125 C18.82359772 61.70654518 18.82359772 61.70654518 16 59 C15.34 59 14.68 59 14 59 Z M62 59 C56.85043873 64.18019004 56.85043873 64.18019004 55 71 C55.33 71.99 55.66 72.98 56 74 C56.14573058 75.47965926 56.24663268 76.96403843 56.31640625 78.44921875 C56.35830078 79.29677734 56.40019531 80.14433594 56.44335938 81.01757812 C56.50233398 82.33918945 56.50233398 82.33918945 56.5625 83.6875 C56.60568359 84.58017578 56.64886719 85.47285156 56.69335938 86.39257812 C56.79935353 88.59490108 56.90142051 90.79733473 57 93 C57.33 93 57.66 93 58 93 C58.05607422 91.06447266 58.05607422 91.06447266 58.11328125 89.08984375 C58.17897702 87.37236851 58.2454231 85.65492185 58.3125 83.9375 C58.33505859 83.08994141 58.35761719 82.24238281 58.38085938 81.36914062 C58.72353844 73.30060619 60.788679 68.28952534 66 62 C66 61.34 66 60.68 66 60 C64.68 59.67 63.36 59.34 62 59 Z M-14 60 C-15.03885944 61.04488181 -16.05559763 62.11178881 -17.0625 63.1875 C-17.63097656 63.77917969 -18.19945312 64.37085937 -18.78515625 64.98046875 C-20.43081218 67.71617331 -19.66783808 68.93183571 -19 72 C-18.90456248 73.69180081 -18.85441325 75.38656542 -18.84178162 77.08100891 C-18.8319928 78.08075241 -18.82220398 79.08049591 -18.81211853 80.11053467 C-18.80636307 81.19594543 -18.8006076 82.2813562 -18.79467773 83.3996582 C-18.78477814 84.55130966 -18.77487854 85.70296112 -18.76467896 86.88951111 C-18.73311065 90.69324696 -18.70832485 94.4969953 -18.68359375 98.30078125 C-18.6630202 100.93922753 -18.64202362 103.57767055 -18.62062073 106.21611023 C-18.57077201 112.44912915 -18.52580428 118.6821733 -18.48259836 124.91524142 C-18.43315901 132.01319656 -18.37826579 139.11110625 -18.32291877 146.2090174 C-18.20921885 160.80596855 -18.10235385 175.40296493 -18 190 C-17.67 190 -17.34 190 -17 190 C-16.99853344 189.39923393 -16.99706688 188.79846786 -16.99555588 188.17949677 C-16.95845055 173.53907576 -16.89938656 158.89885615 -16.81609726 144.25862885 C-16.77634405 137.17860043 -16.74393279 130.09868256 -16.72900391 123.01855469 C-16.71457273 116.18436549 -16.67941905 109.35053143 -16.63169098 102.51649475 C-16.61686684 99.91067993 -16.6089584 97.3048162 -16.60811615 94.69895935 C-16.60574801 91.04568043 -16.57867777 87.39334967 -16.54589844 83.74023438 C-16.5509288 82.66560944 -16.55595917 81.5909845 -16.56114197 80.48379517 C-16.48183099 74.76117646 -15.88267022 70.599386 -12.95346451 65.63022614 C-11.8334533 63.84366301 -11.8334533 63.84366301 -11 61 C-11.99 60.67 -12.98 60.34 -14 60 Z M-7 60 C-7 60.33 -7 60.66 -7 61 C-5.35 61 -3.7 61 -2 61 C-2 60.67 -2 60.34 -2 60 C-3.65 60 -5.3 60 -7 60 Z M80 60 C80 60.33 80 60.66 80 61 C81.65 61 83.3 61 85 61 C85 60.67 85 60.34 85 60 C83.35 60 81.7 60 80 60 Z M91 60 C90.34 60.66 89.68 61.32 89 62 C89.35328715 62.57558088 89.70657431 63.15116177 90.07056713 63.74418449 C94.05371417 70.82463002 94.72057308 76.57853519 94.65942383 84.60986328 C94.66990753 85.83051987 94.68039124 87.05117645 94.69119263 88.30882263 C94.71489844 91.62470428 94.71690791 94.93921376 94.70889878 98.25507593 C94.70575486 101.73182177 94.73086279 105.20836674 94.75285339 108.68502808 C94.79017511 115.2543941 94.8024343 121.82355318 94.8054778 128.39301479 C94.8101816 135.87808838 94.84314704 143.36295632 94.87837565 150.84793878 C94.95015419 166.23194446 94.98680187 181.61582569 95 197 C95.33 197 95.66 197 96 197 C96.00423194 196.36039243 96.00846388 195.72078485 96.01282406 195.06179523 C96.1161446 179.49619874 96.22478446 163.93064982 96.33933926 148.36513233 C96.39460898 140.83775683 96.44808064 133.31037658 96.49731445 125.78295898 C96.54023294 119.22179772 96.58653013 112.66067048 96.63687855 106.09956187 C96.66341781 102.62576579 96.68826917 99.15197619 96.70907402 95.67814064 C96.73236681 91.79946014 96.76320304 87.9208595 96.79467773 84.04223633 C96.8004332 82.89137039 96.80618866 81.74050446 96.81211853 80.55476379 C96.82680176 78.96679993 96.82680176 78.96679993 96.84178162 77.34675598 C96.84823417 76.42957196 96.85468672 75.51238794 96.8613348 74.56741047 C97 72 97 72 97.58361912 69.29204845 C98.26550787 66.95172404 98.26550787 66.95172404 96.8203125 64.98046875 C96.26085937 64.38878906 95.70140625 63.79710938 95.125 63.1875 C94.57070313 62.58292969 94.01640625 61.97835937 93.4453125 61.35546875 C92.20867598 59.88598795 92.20867598 59.88598795 91 60 Z M-21 70 C-21.75723102 73.3702526 -22.12406014 76.47745043 -22.12025452 79.92915344 C-22.12162918 80.89524033 -22.12300385 81.86132721 -22.12442017 82.85668945 C-22.12082489 83.90469727 -22.11722961 84.95270508 -22.11352539 86.0324707 C-22.11367142 87.14510788 -22.11381744 88.25774506 -22.1139679 89.40409851 C-22.1132718 93.07801266 -22.1054935 96.75187597 -22.09765625 100.42578125 C-22.095791 102.97454297 -22.0943676 105.52330505 -22.09336853 108.07206726 C-22.08994182 114.09262536 -22.08206204 120.11316167 -22.07201904 126.13371104 C-22.06083118 132.98980042 -22.05534072 139.84589067 -22.05032361 146.70198691 C-22.0398787 160.80133468 -22.02229593 174.90066634 -22 189 C-21.01 189 -20.02 189 -19 189 C-18.97662164 174.37025802 -18.95899657 159.74051852 -18.94818783 145.11076164 C-18.94303536 138.31764984 -18.93601266 131.52454966 -18.92456055 124.73144531 C-18.91351478 118.17624073 -18.90771609 111.62104368 -18.90512276 105.06583023 C-18.90327451 102.56439143 -18.8996654 100.06295329 -18.89426994 97.56151962 C-18.88701552 94.05906494 -18.88601093 90.5566602 -18.88647461 87.05419922 C-18.88287933 86.01913742 -18.87928406 84.98407562 -18.87557983 83.91764832 C-18.8823948 79.1631258 -19.00216696 74.67455266 -20 70 C-20.33 70 -20.66 70 -21 70 Z M98 70 C98.33 111.58 98.66 153.16 99 196 C99.33 196 99.66 196 100 196 C100.0233654 180.30991548 100.04099708 164.61983565 100.05181217 148.92973804 C100.05696738 141.64447765 100.06399534 134.35922807 100.07543945 127.07397461 C100.08540994 120.72379302 100.09185907 114.37361925 100.09408849 108.02343005 C100.09539158 104.66139582 100.09845202 101.29938399 100.10573006 97.93735695 C100.11297168 94.18324064 100.11398961 90.42917098 100.11352539 86.67504883 C100.11712067 85.56158585 100.12071594 84.44812286 100.12442017 83.30091858 C100.1230455 82.27593262 100.12167084 81.25094666 100.12025452 80.19490051 C100.12117631 79.30721387 100.1220981 78.41952723 100.12304783 77.50494099 C99.99589876 74.91650909 99.57154616 72.52453853 99 70 C98.67 70 98.34 70 98 70 Z M23 71 C23 100.7 23 130.4 23 161 C23.33 161 23.66 161 24 161 C24 131.3 24 101.6 24 71 C23.67 71 23.34 71 23 71 Z M54 71 C54 77.93 54 84.86 54 92 C54.33 92 54.66 92 55 92 C55 85.07 55 78.14 55 71 C54.67 71 54.34 71 54 71 Z M97 76 C97 115.6 97 155.2 97 196 C97.33 196 97.66 196 98 196 C98 156.4 98 116.8 98 76 C97.67 76 97.34 76 97 76 Z M54 115 C54 137.77 54 160.54 54 184 C54.33 184 54.66 184 55 184 C55 161.23 55 138.46 55 115 C54.67 115 54.34 115 54 115 Z M57 115 C57 137.77 57 160.54 57 184 C57.33 184 57.66 184 58 184 C58 161.23 58 138.46 58 115 C57.67 115 57.34 115 57 115 Z M20 172 C20 176.29 20 180.58 20 185 C20.33 185 20.66 185 21 185 C21 180.71 21 176.42 21 172 C20.67 172 20.34 172 20 172 Z M23 173 C23 176.96 23 180.92 23 185 C23.33 185 23.66 185 24 185 C24 181.04 24 177.08 24 173 C23.67 173 23.34 173 23 173 Z M54 193 C54 195.97 54 198.94 54 202 C54.33 202 54.66 202 55 202 C55 199.03 55 196.06 55 193 C54.67 193 54.34 193 54 193 Z M57 193 C57 196.3 57 199.6 57 203 C57.33 203 57.66 203 58 203 C58 199.7 58 196.4 58 193 C57.67 193 57.34 193 57 193 Z M126 307 C125.95101562 307.65226562 125.90203125 308.30453125 125.8515625 308.9765625 C125.42757771 313.93279853 124.84334427 318.33019451 123 323 C124.485 323.99 124.485 323.99 126 325 C127.70130396 323.43207684 127.70130396 323.43207684 129 321 C128.928404 317.47221893 128.928404 317.47221893 128.1875 313.75 C127.97480469 312.48671875 127.76210938 311.2234375 127.54296875 309.921875 C127.36378906 308.95765625 127.18460938 307.9934375 127 307 C126.67 307 126.34 307 126 307 Z M130 307 C130 309.64 130 312.28 130 315 C130.33 315 130.66 315 131 315 C131 312.36 131 309.72 131 307 C130.67 307 130.34 307 130 307 Z M128 308 C128 310.31 128 312.62 128 315 C128.33 315 128.66 315 129 315 C129 312.69 129 310.38 129 308 C128.67 308 128.34 308 128 308 Z M-53 310 C-53 312.31 -53 314.62 -53 317 C-52.67 317 -52.34 317 -52 317 C-52 314.69 -52 312.38 -52 310 C-52.33 310 -52.66 310 -53 310 Z M-49 311 C-51.85109227 313.85109227 -51.86327758 316.03504975 -52 320 C-50.47722993 322.60720318 -50.47722993 322.60720318 -48 324 C-45.78141747 323.86358623 -45.78141747 323.86358623 -44 323 C-44.28875 322.505 -44.5775 322.01 -44.875 321.5 C-46.41288416 318.08247965 -47.14847805 314.6493798 -48 311 C-48.33 311 -48.66 311 -49 311 Z M129 315 C130 319 130 319 130 319 Z M-41 323 C-41 323.33 -41 323.66 -41 324 C-37.04 324 -33.08 324 -29 324 C-29 323.67 -29 323.34 -29 323 C-32.96 323 -36.92 323 -41 323 Z M-28 323 C-27 327 -27 327 -27 327 Z M101 323 C101 323.33 101 323.66 101 324 C107.6 324 114.2 324 121 324 C121 323.67 121 323.34 121 323 C114.4 323 107.8 323 101 323 Z M-6 324 C-6 324.33 -6 324.66 -6 325 C16.11 325 38.22 325 61 325 C61 324.67 61 324.34 61 324 C38.89 324 16.78 324 -6 324 Z M62 324 C63 328 63 328 63 328 Z M69 324 C70 328 70 328 70 328 Z M71 324 C71 324.33 71 324.66 71 325 C73.97 325 76.94 325 80 325 C80 324.67 80 324.34 80 324 C77.03 324 74.06 324 71 324 Z M-9 325 C-8 328 -8 328 -8 328 Z M82 325 C83 328 83 328 83 328 Z M100 325 C100 325.33 100 325.66 100 326 C106.93 326 113.86 326 121 326 C121 325.67 121 325.34 121 325 C114.07 325 107.14 325 100 325 Z M-44 326 C-44 326.33 -44 326.66 -44 327 C-41.87631556 327.22134176 -39.75095976 327.42670007 -37.625 327.625 C-36.44164062 327.74101562 -35.25828125 327.85703125 -34.0390625 327.9765625 C-32.53472656 327.98816406 -32.53472656 327.98816406 -31 328 C-30.34 327.34 -29.68 326.68 -29 326 C-34.34629602 324.9975695 -38.62374766 325.15111805 -44 326 Z M-7 326 C-7 326.33 -7 326.66 -7 327 C15.44 327 37.88 327 61 327 C61 326.67 61 326.34 61 326 C38.56 326 16.12 326 -7 326 Z M71 326 C71 326.33 71 326.66 71 327 C74.3 327 77.6 327 81 327 C81 326.67 81 326.34 81 326 C77.7 326 74.4 326 71 326 Z M98 326 C99 328 99 328 99 328 Z M100 327 C100 327.33 100 327.66 100 328 C106.93 328 113.86 328 121 328 C121 327.67 121 327.34 121 327 C114.07 327 107.14 327 100 327 Z M-8 328 C-8 328.33 -8 328.66 -8 329 C14.44 329 36.88 329 60 329 C60 328.67 60 328.34 60 328 C37.56 328 15.12 328 -8 328 Z M72 328 C72 328.33 72 328.66 72 329 C75.3 329 78.6 329 82 329 C82 328.67 82 328.34 82 328 C78.7 328 75.4 328 72 328 Z " fill="#FD9BB4" transform="translate(217,22)"/>
<path d="M0 0 C0.73907593 -0.15040237 1.47815186 -0.30080475 2.23962402 -0.45576477 C5.4172815 -1.08227115 8.36422004 -1.13459808 11.60351562 -1.14526367 C13.58212585 -1.15483345 13.58212585 -1.15483345 15.60070801 -1.16459656 C17.0358883 -1.16612641 18.47106908 -1.16723974 19.90625 -1.16796875 C21.39253775 -1.17118671 22.8788252 -1.17455118 24.3651123 -1.17805481 C27.48202242 -1.184037 30.59890486 -1.18589588 33.71582031 -1.18530273 C37.67497364 -1.18520171 41.63394522 -1.19879579 45.59305573 -1.21607494 C48.66634912 -1.22729999 51.73960021 -1.22921868 54.81291199 -1.22869301 C56.27028524 -1.22985961 57.72766008 -1.23420554 59.18501282 -1.24202538 C68.30146701 -1.28632489 77.0221931 -0.6496916 86 1 C87.04949829 1.1575325 88.09899658 1.315065 89.18029785 1.47737122 C92.53585798 2.09932071 94.92170682 3.36975879 97.875 5.0625 C98.84179688 5.61035156 99.80859375 6.15820312 100.8046875 6.72265625 C101.89136719 7.35494141 101.89136719 7.35494141 103 8 C103 8.66 103 9.32 103 10 C103.804375 10.12375 104.60875 10.2475 105.4375 10.375 C106.283125 10.58125 107.12875 10.7875 108 11 C108.33 11.66 108.66 12.32 109 13 C109.99 13.33 110.98 13.66 112 14 C112.33 14.99 112.66 15.98 113 17 C114.32529779 17.36397067 115.66016994 17.69382311 117 18 C118.66796875 19.26953125 118.66796875 19.26953125 120.1875 20.8125 C120.95126953 21.56466797 120.95126953 21.56466797 121.73046875 22.33203125 C123 24 123 24 123.4765625 25.91796875 C124.15923744 28.63338474 125.50354536 30.2695965 127.1875 32.5 C137.75692584 47.33618177 141.64533876 63.29887653 142.57582092 81.30480957 C142.62567798 82.22152892 142.67553503 83.13824826 142.7269029 84.08274698 C142.89261586 87.1442048 143.0538592 90.20588111 143.21508789 93.26757812 C143.33320913 95.467731 143.4515883 97.66787004 143.57020569 99.86799622 C143.8913829 105.84191516 144.20849261 111.81604338 144.52454305 117.79023552 C144.78939249 122.79144491 145.05597892 127.79256118 145.32248396 132.79368258 C145.91619845 143.93735383 146.50699642 155.08117716 147.0954879 166.22512525 C147.13076644 166.89317279 147.16604499 167.56122032 147.20239258 168.24951172 C147.23771445 168.91838962 147.27303633 169.58726752 147.30942857 170.27641445 C147.87988373 181.07596696 148.45642513 191.87518457 149.0358004 202.67426187 C149.63259473 213.79932215 150.22465898 224.92462709 150.81227487 236.05017614 C151.14144987 242.28116853 151.47244243 248.51205035 151.80821419 254.74269104 C152.12473751 260.61933224 152.4352606 266.49626229 152.74147606 272.37344933 C152.85385558 274.51183274 152.96823853 276.65011214 153.08495331 278.78826332 C153.45184472 285.52372707 153.76613208 292.25855353 154 299 C154.05408622 300.52316676 154.05408622 300.52316676 154.10926509 302.07710457 C154.20541164 305.16265519 154.26720069 308.24701474 154.31785583 311.33361816 C154.34729406 312.25699777 154.37673229 313.18037738 154.40706259 314.13173819 C154.47018425 321.91885197 152.56404968 328.54162502 147.89453125 334.83984375 C147.20746094 335.53207031 146.52039063 336.22429687 145.8125 336.9375 C142.74243282 340.04224249 142.74243282 340.04224249 141 344 C136.2283424 347.47981859 131.78897798 348.48241483 126 348 C126 348.66 126 349.32 126 350 C106.53 350 87.06 350 67 350 C67 382.01 67 414.02 67 447 C66.34 447 65.68 447 65 447 C64.78085937 447.71285156 64.56171875 448.42570312 64.3359375 449.16015625 C62.19589879 455.62376909 59.85255027 460.23236936 55 465 C54.42121094 465.68070557 53.84242188 466.36141113 53.24609375 467.06274414 C50.46845964 469.45845356 49.1234106 469.51420439 45.5 469.53125 C44.448125 469.53640625 43.39625 469.5415625 42.3125 469.546875 C41.219375 469.53140625 40.12625 469.5159375 39 469.5 C37.906875 469.51546875 36.81375 469.5309375 35.6875 469.546875 C34.635625 469.54171875 33.58375 469.5365625 32.5 469.53125 C31.5409375 469.52673828 30.581875 469.52222656 29.59375 469.51757812 C26.29386297 468.85909163 25.14689665 467.52493455 23 465 C22.2265625 464.24009766 22.2265625 464.24009766 21.4375 463.46484375 C16.86420912 458.60572219 14.94203369 453.31732136 13 447 C12.34 447 11.68 447 11 447 C11 414.99 11 382.98 11 350 C-8.47 350 -27.94 350 -48 350 C-48 349.34 -48 348.68 -48 348 C-48.969375 348.103125 -49.93875 348.20625 -50.9375 348.3125 C-55.9256789 348.32267996 -60.11648099 346.00557479 -64 343 C-65.08203125 341.0234375 -65.08203125 341.0234375 -66 339 C-66.9294393 337.93247257 -67.88956715 336.89106807 -68.875 335.875 C-75.17716518 328.62812428 -76.61501918 320.67541188 -76.31587219 311.32469177 C-76.29947986 310.32888609 -76.28308753 309.33308041 -76.26619846 308.30709881 C-76.20495587 305.20326215 -76.10903486 302.10250155 -76 299 C-75.95178561 297.58015458 -75.95178561 297.58015458 -75.90259719 296.13162541 C-75.65671488 289.35201694 -75.30789207 282.57917729 -74.94604492 275.80493164 C-74.83220892 273.59109918 -74.71886665 271.37724128 -74.60597229 269.1633606 C-74.30162324 263.22757748 -73.9896879 257.29221781 -73.67564559 251.35694051 C-73.41271292 246.37681391 -73.15323891 241.39650919 -72.89361554 236.41620916 C-72.24588561 223.99509821 -71.59036795 211.57441001 -70.93147681 199.15388691 C-70.36178831 188.40955608 -69.80325692 177.66467814 -69.24979349 166.91950042 C-68.67827197 155.82605807 -68.09846183 144.73307138 -67.51066095 133.64047903 C-67.18203478 127.43661311 -66.85661701 121.23262229 -66.53954124 115.02815437 C-66.24132951 109.19893385 -65.93263029 103.37035861 -65.61614037 97.54210281 C-65.50238678 95.41558779 -65.39222904 93.28887657 -65.28612137 91.16196632 C-64.17391624 68.95816706 -61.57703721 49.01624361 -47.953125 30.8046875 C-46.14970317 28.21497376 -45.13994896 25.91320291 -44 23 C-42.6328125 21.234375 -42.6328125 21.234375 -41.125 19.75 C-40.63257813 19.24984375 -40.14015625 18.7496875 -39.6328125 18.234375 C-38 17 -38 17 -35.8671875 16.515625 C-35.25101563 16.34546875 -34.63484375 16.1753125 -34 16 C-33.505 14.515 -33.505 14.515 -33 13 C-32.01 12.67 -31.02 12.34 -30 12 C-29.67 11.34 -29.34 10.68 -29 10 C-28.38125 9.855625 -27.7625 9.71125 -27.125 9.5625 C-24.94681476 9.185417 -24.94681476 9.185417 -23.69921875 7.625 C-18.0486527 2.22124028 -7.55595976 -1.74368302 0 0 Z M-39.16015625 34.45703125 C-49.69982518 48.00223197 -54.02210911 63.14564641 -54.9765625 80.03515625 C-55.05773126 81.38446591 -55.13925672 82.73375415 -55.22109985 84.08302307 C-56.31060285 102.37130476 -57.16860795 120.67372475 -58.05969238 138.97247314 C-58.59779173 150.01976017 -59.14551877 161.06657075 -59.6953125 172.11328125 C-59.77757332 173.76696087 -59.77757332 173.76696087 -59.86149597 175.45404816 C-60.91920273 196.68175817 -62.05645399 217.90452227 -63.25 239.125 C-63.29165031 239.86581188 -63.33330063 240.60662376 -63.37621307 241.36988449 C-63.65073684 246.24925716 -63.92663183 251.12855104 -64.203125 256.0078125 C-64.31001648 257.89606499 -64.31001648 257.89606499 -64.41906738 259.82246399 C-64.71189001 264.9819838 -65.00684505 270.14128938 -65.31689453 275.29980469 C-65.86425089 284.49975316 -66.27017858 293.69110112 -66.35009766 302.90771484 C-66.36687166 304.31705998 -66.39443257 305.72631315 -66.43212891 307.13525391 C-66.66546753 316.00415072 -66.45416263 323.60365131 -61 331 C-58.76813112 333.28629948 -58.76813112 333.28629948 -56.3125 334.5625 C-55.54550781 335.01753906 -54.77851563 335.47257812 -53.98828125 335.94140625 C-50.07751585 338.02356229 -47.61244417 338.13444558 -43.10717773 338.15390015 C-42.38973577 338.1582824 -41.67229382 338.16266465 -40.93311119 338.1671797 C-38.51660278 338.18058915 -36.10013085 338.18675147 -33.68359375 338.19287109 C-31.95570205 338.20077067 -30.227812 338.20903953 -28.49992371 338.21765137 C-22.81246522 338.2438985 -17.12499929 338.25918636 -11.4375 338.2734375 C-9.47947179 338.27879696 -7.52144364 338.28417447 -5.56341553 338.28956985 C2.58436444 338.3112067 10.73214241 338.3299414 18.87994385 338.34119225 C30.55246 338.3574159 42.2246424 338.39054599 53.89703274 338.44759309 C62.10522939 338.48633851 70.31333698 338.50583066 78.52162266 338.51111281 C83.42261727 338.5147613 88.32325615 338.52672831 93.22415161 338.55921555 C97.84041651 338.5893754 102.45611195 338.59557987 107.07245445 338.58383179 C108.76146255 338.58361168 110.45049765 338.59186437 112.13941383 338.60948563 C121.28084815 338.6996237 129.27571393 338.59850428 137 333 C139.28560125 330.8033169 139.28560125 330.8033169 140.5625 328.375 C141.01753906 327.61960937 141.47257813 326.86421875 141.94140625 326.0859375 C144.46260767 321.11796127 144.19149517 316.6329186 144.1875 311.1875 C144.18741943 310.13667236 144.18733887 309.08584473 144.18725586 308.00317383 C144.10884946 296.05486348 143.5835651 284.12320278 143.0625 272.1875 C143.01902435 271.18254486 142.97554871 270.17758972 142.93075562 269.1421814 C142.80244674 266.21310383 142.66982454 263.28426031 142.53515625 260.35546875 C142.49655487 259.49042725 142.45795349 258.62538574 142.41818237 257.73413086 C142.203435 253.21810236 141.90339809 248.72160691 141.50927734 244.2175293 C140.93452192 237.53966168 140.61398715 230.85925903 140.31640625 224.1640625 C140.22482569 222.16965004 140.1332429 220.17523768 140.04155827 218.18083 C139.94577394 216.08941917 139.85101585 213.99796405 139.75653076 211.90649414 C139.46354455 205.42766424 139.16244719 198.94920917 138.8615799 192.47074127 C138.79502577 191.03755219 138.72853302 189.60436025 138.66210175 188.17116547 C138.13188437 176.73467067 137.58967769 165.29888642 136.99728394 153.86541748 C136.91671498 152.30691992 136.83720093 150.74836741 136.75881958 149.1897583 C136.65212345 147.0742527 136.54156671 144.95898701 136.4296875 142.84375 C136.37022949 141.70099609 136.31077148 140.55824219 136.24951172 139.38085938 C136.02060244 136.27916108 135.63822627 133.22280856 135.23657227 130.13989258 C134.80136205 126.2032388 134.68406846 122.25292276 134.53515625 118.296875 C134.45651093 116.40884872 134.3777303 114.52082807 134.29882812 112.6328125 C134.18054111 109.71134181 134.06404842 106.78982049 133.95043945 103.86816406 C133.54490487 93.56177963 133.04075857 83.28781087 132.04296875 73.01953125 C131.92816917 71.80925262 131.92816917 71.80925262 131.81105042 70.57452393 C129.83394027 51.54831117 120.2405056 35.64798636 105.90625 23.171875 C97.90527807 17.19265404 88.64761486 12.57969497 79 10 C78.37667282 9.82285965 77.75334564 9.6457193 77.11112976 9.46321106 C70.18446192 7.6901115 63.38703585 7.69400387 56.26953125 7.69921875 C54.96151047 7.69493362 53.65348969 7.6906485 52.30583191 7.68623352 C49.54653856 7.67881184 46.78737322 7.67903156 44.02807617 7.68432617 C40.53309901 7.69009613 37.03865609 7.67323054 33.54376698 7.6499815 C30.16066889 7.63149013 26.77767921 7.63543408 23.39453125 7.63671875 C22.1607222 7.627509 20.92691315 7.61829926 19.65571594 7.60881042 C-3.90081669 7.73199186 -23.60194054 16.76061591 -39.16015625 34.45703125 Z " fill="#803351" transform="translate(217,22)"/>
<path d="M0 0 C10.56 0 21.12 0 32 0 C32.06781285 12.91747943 32.12283771 25.83484037 32.15543652 38.75245762 C32.17108334 44.75081058 32.19230397 50.74903529 32.22631836 56.74731445 C32.25894641 62.53744198 32.27686041 68.32744624 32.28463173 74.11765862 C32.29016901 76.32522458 32.30098196 78.53278391 32.31719017 80.74029732 C32.33900987 83.83555738 32.34196498 86.93031 32.34057617 90.02563477 C32.351362 90.93554169 32.36214783 91.84544861 32.3732605 92.78292847 C32.34373398 98.87609912 31.70100131 104.16176537 27.30859375 108.77734375 C21.91432481 112.12201572 17.29727961 113.088926 11 112 C6.1310498 110.42338756 3.2482178 107.58729127 0.81116486 103.09170341 C-0.72572628 99.12861205 -0.51978673 95.13251356 -0.45410156 90.93383789 C-0.45468567 89.94770508 -0.45526978 88.96157227 -0.45587158 87.94555664 C-0.45309732 84.70422479 -0.42203567 81.46382635 -0.390625 78.22265625 C-0.38316029 75.96822105 -0.37746845 73.71377934 -0.37347412 71.45933533 C-0.35823603 65.5392348 -0.31896947 59.61952975 -0.2746582 53.69958496 C-0.2336664 47.65329334 -0.21545473 41.60693754 -0.1953125 35.56054688 C-0.15247374 23.70682996 -0.08213834 11.85350981 0 0 Z " fill="#ECCE9E" transform="translate(240,369)"/>
<path d="M0 0 C4.65552557 1.668962 7.62685856 3.6188158 10 8 C10.79448427 13.31007343 10.64735479 17.60569737 8.375 22.5 C4.7053959 26.36274116 1.30510501 28.12364837 -4 28.4375 C-8.23419303 28.2674846 -10.74108092 26.72839737 -14 24 C-16.89626035 20.70425546 -17.89660298 18.09600845 -18.3125 13.6875 C-17.85157349 8.24856718 -15.41853721 5.54012611 -11.8125 1.625 C-7.82478062 -0.67901564 -4.50102419 -0.65209184 0 0 Z " fill="#833352" transform="translate(320,245)"/>
<path d="M0 0 C4.25605409 2.408646 7.12558435 5.47676222 9 10 C9.4850824 15.23888993 8.85631117 18.56779301 6 23 C1.57701355 27.09126246 -1.8605105 28.37061749 -7.9375 28.28125 C-12.32511227 27.68293924 -15.04646 25.08067867 -17.875 21.875 C-19.56484251 17.55651358 -19.65960983 13.5732948 -19 9 C-15.0003343 0.85253284 -8.75173523 -1.70399829 0 0 Z " fill="#833352" transform="translate(201,245)"/>
<path d="M0 0 C1.4540625 0.0309375 1.4540625 0.0309375 2.9375 0.0625 C3.21464844 0.70058594 3.49179688 1.33867187 3.77734375 1.99609375 C4.13957031 2.82238281 4.50179687 3.64867187 4.875 4.5 C5.23464844 5.32371094 5.59429687 6.14742188 5.96484375 6.99609375 C6.76872323 9.00660117 6.76872323 9.00660117 7.9375 10.0625 C12.90220428 10.55028507 12.90220428 10.55028507 17.25 8.4375 C19.16716311 5.73927044 20.0699209 3.24362337 20.9375 0.0625 C22.93704746 0.01995644 24.93791636 0.02169217 26.9375 0.0625 C28.48780118 1.61280118 28.18155099 3.09926001 28.25 5.25 C28.16760142 9.96919133 27.2287309 12.52442678 23.9375 16.0625 C19.32638051 19.40374008 14.7907221 20.73917528 9.109375 20.4453125 C4.10106372 19.5625526 0.91742772 17.14293312 -2.5 13.375 C-4.47746025 9.18278427 -4.64948123 5.63325547 -4.0625 1.0625 C-3.0625 0.0625 -3.0625 0.0625 0 0 Z " fill="#833351" transform="translate(244.0625,266.9375)"/>
<path d="M0 0 C0.33 0 0.66 0 1 0 C1 37.29 1 74.58 1 113 C0.67 113 0.34 113 0 113 C0 75.71 0 38.42 0 0 Z " fill="#FFF5FC" transform="translate(196,98)"/>
<path d="M0 0 C22.44 0 44.88 0 68 0 C68 0.33 68 0.66 68 1 C45.56 1 23.12 1 0 1 C0 0.67 0 0.34 0 0 Z " fill="#7F3250" transform="translate(222,19)"/>
<path d="M0 0 C0.66 0.33 1.32 0.66 2 1 C0.4169423 5.2742558 -2.50568404 7.26531794 -6 10 C-4.52307692 3.47692308 -4.52307692 3.47692308 -1.875 1.0625 C-1.25625 0.711875 -0.6375 0.36125 0 0 Z " fill="#E78AA2" transform="translate(208,82)"/>
<path d="M0 0 C0.33 0 0.66 0 1 0 C1 7.59 1 15.18 1 23 C0.67 23 0.34 23 0 23 C0 15.41 0 7.82 0 0 Z " fill="#7F3150" transform="translate(139,321)"/>
<path d="M0 0 C0.33 0 0.66 0 1 0 C1 7.59 1 15.18 1 23 C0.67 23 0.34 23 0 23 C0 15.41 0 7.82 0 0 Z " fill="#803150" transform="translate(372,321)"/>
<path d="M0 0 C4.95 0 9.9 0 15 0 C15 0.33 15 0.66 15 1 C13.25181409 1.22304441 11.50129677 1.4278645 9.75 1.625 C8.77546875 1.74101563 7.8009375 1.85703125 6.796875 1.9765625 C4 2 4 2 0 0 Z " fill="#E588A0" transform="translate(211,79)"/>
<path d="M0 0 C0.33 0 0.66 0 1 0 C1 6.6 1 13.2 1 20 C0.67 20 0.34 20 0 20 C0 13.4 0 6.8 0 0 Z " fill="#7F3250" transform="translate(145,206)"/>
<path d="M0 0 C0.33 0 0.66 0 1 0 C1 6.6 1 13.2 1 20 C0.67 20 0.34 20 0 20 C0 13.4 0 6.8 0 0 Z " fill="#7F3250" transform="translate(366,206)"/>
<path d="M0 0 C0.33 0 0.66 0 1 0 C1 6.6 1 13.2 1 20 C0.67 20 0.34 20 0 20 C0 13.4 0 6.8 0 0 Z " fill="#763650" transform="translate(148,149)"/>
<path d="M0 0 C0.33 0 0.66 0 1 0 C1 6.6 1 13.2 1 20 C0.67 20 0.34 20 0 20 C0 13.4 0 6.8 0 0 Z " fill="#763750" transform="translate(363,149)"/>
<path d="M0 0 C0.33 0 0.66 0 1 0 C1 6.27 1 12.54 1 19 C0.67 19 0.34 19 0 19 C0 12.73 0 6.46 0 0 Z " fill="#753750" transform="translate(140,301)"/>
<path d="M0 0 C0.33 0 0.66 0 1 0 C1 6.27 1 12.54 1 19 C0.67 19 0.34 19 0 19 C0 12.73 0 6.46 0 0 Z " fill="#753751" transform="translate(371,301)"/>
<path d="M0 0 C0.33 0 0.66 0 1 0 C1 6.27 1 12.54 1 19 C0.67 19 0.34 19 0 19 C0 12.73 0 6.46 0 0 Z " fill="#763650" transform="translate(369,264)"/>
<path d="M0 0 C0.33 0 0.66 0 1 0 C1 6.27 1 12.54 1 19 C0.67 19 0.34 19 0 19 C0 12.73 0 6.46 0 0 Z " fill="#763650" transform="translate(142,264)"/>
<path d="M0 0 C0.33 0 0.66 0 1 0 C1 6.27 1 12.54 1 19 C0.67 19 0.34 19 0 19 C0 12.73 0 6.46 0 0 Z " fill="#7E3250" transform="translate(368,244)"/>
<path d="M0 0 C0.33 0 0.66 0 1 0 C1 6.27 1 12.54 1 19 C0.67 19 0.34 19 0 19 C0 12.73 0 6.46 0 0 Z " fill="#7D3350" transform="translate(143,244)"/>
<path d="M0 0 C0.33 0 0.66 0 1 0 C1 6.27 1 12.54 1 19 C0.67 19 0.34 19 0 19 C0 12.73 0 6.46 0 0 Z " fill="#753750" transform="translate(365,187)"/>
<path d="M0 0 C0.33 0 0.66 0 1 0 C1 6.27 1 12.54 1 19 C0.67 19 0.34 19 0 19 C0 12.73 0 6.46 0 0 Z " fill="#763851" transform="translate(146,187)"/>
<path d="M0 0 C0.33 0 0.66 0 1 0 C1 6.27 1 12.54 1 19 C0.67 19 0.34 19 0 19 C0 12.73 0 6.46 0 0 Z " fill="#823151" transform="translate(360,93)"/>
<path d="M0 0 C0.33 0 0.66 0 1 0 C1 6.27 1 12.54 1 19 C0.67 19 0.34 19 0 19 C0 12.73 0 6.46 0 0 Z " fill="#7E3250" transform="translate(151,93)"/>
<path d="M0 0 C0.33 0 0.66 0 1 0 C1 5.94 1 11.88 1 18 C0.67 18 0.34 18 0 18 C0 12.06 0 6.12 0 0 Z " fill="#7F3251" transform="translate(141,283)"/>
<path d="M0 0 C0.33 0 0.66 0 1 0 C1 5.94 1 11.88 1 18 C0.67 18 0.34 18 0 18 C0 12.06 0 6.12 0 0 Z " fill="#7F3251" transform="translate(370,283)"/>
<path d="M0 0 C0.33 0 0.66 0 1 0 C1 5.94 1 11.88 1 18 C0.67 18 0.34 18 0 18 C0 12.06 0 6.12 0 0 Z " fill="#743751" transform="translate(367,226)"/>
<path d="M0 0 C0.33 0 0.66 0 1 0 C1 5.94 1 11.88 1 18 C0.67 18 0.34 18 0 18 C0 12.06 0 6.12 0 0 Z " fill="#743850" transform="translate(144,226)"/>
<path d="M0 0 C0.33 0 0.66 0 1 0 C1 5.94 1 11.88 1 18 C0.67 18 0.34 18 0 18 C0 12.06 0 6.12 0 0 Z " fill="#7F3250" transform="translate(364,169)"/>
<path d="M0 0 C0.33 0 0.66 0 1 0 C1 5.94 1 11.88 1 18 C0.67 18 0.34 18 0 18 C0 12.06 0 6.12 0 0 Z " fill="#803251" transform="translate(147,169)"/>
<path d="M0 0 C0.33 0 0.66 0 1 0 C1 5.94 1 11.88 1 18 C0.67 18 0.34 18 0 18 C0 12.06 0 6.12 0 0 Z " fill="#7E3251" transform="translate(149,130)"/>
<path d="M0 0 C0.33 0 0.66 0 1 0 C1 5.94 1 11.88 1 18 C0.67 18 0.34 18 0 18 C0 12.06 0 6.12 0 0 Z " fill="#7F3250" transform="translate(362,130)"/>
<path d="M0 0 C0.33 0 0.66 0 1 0 C1 5.94 1 11.88 1 18 C0.67 18 0.34 18 0 18 C0 12.06 0 6.12 0 0 Z " fill="#753750" transform="translate(361,112)"/>
<path d="M0 0 C0.33 0 0.66 0 1 0 C1 5.94 1 11.88 1 18 C0.67 18 0.34 18 0 18 C0 12.06 0 6.12 0 0 Z " fill="#733850" transform="translate(150,112)"/>
<path d="M0 0 C3.96 0 7.92 0 12 0 C12 0.33 12 0.66 12 1 C8.04 1 4.08 1 0 1 C0 0.67 0 0.34 0 0 Z " fill="#7F3250" transform="translate(250,492)"/>
<path d="M0 0 C0.66 0.66 1.32 1.32 2 2 C1.625 4.125 1.625 4.125 1 6 C0.67 4.02 0.34 2.04 0 0 Z " fill="#E798AE" transform="translate(273,90)"/>
<path d="M0 0 C0.33 0.99 0.66 1.98 1 3 C0.34 3.99 -0.32 4.98 -1 6 C-0.67 4.02 -0.34 2.04 0 0 Z " fill="#E697AF" transform="translate(238,90)"/>
<path d="M0 0 C0.33 0 0.66 0 1 0 C1 2.31 1 4.62 1 7 C0.67 7 0.34 7 0 7 C0 4.69 0 2.38 0 0 Z " fill="#763550" transform="translate(359,86)"/>
<path d="M0 0 C0.33 0 0.66 0 1 0 C1 2.31 1 4.62 1 7 C0.67 7 0.34 7 0 7 C0 4.69 0 2.38 0 0 Z " fill="#773651" transform="translate(152,86)"/>
<path d="M0 0 C1.98 0 3.96 0 6 0 C6 0.33 6 0.66 6 1 C4.02 1 2.04 1 0 1 C0 0.67 0 0.34 0 0 Z " fill="#783550" transform="translate(290,20)"/>
<path d="M0 0 C1.98 0 3.96 0 6 0 C6 0.33 6 0.66 6 1 C4.02 1 2.04 1 0 1 C0 0.67 0 0.34 0 0 Z " fill="#78374F" transform="translate(216,20)"/>
<path d="M0 0 C0.99 0.99 1.98 1.98 3 3 C2.01 2.67 1.02 2.34 0 2 C0 1.34 0 0.68 0 0 Z " fill="#7E3251" transform="translate(236,483)"/>
<path d="M0 0 C0 0.99 0 1.98 0 3 C-0.66 2.67 -1.32 2.34 -2 2 C-1.34 1.34 -0.68 0.68 0 0 Z " fill="#7E3250" transform="translate(275,483)"/>
<path d="M0 0 C1.65 0 3.3 0 5 0 C5 0.33 5 0.66 5 1 C3.35 1 1.7 1 0 1 C0 0.67 0 0.34 0 0 Z " fill="#F69FB8" transform="translate(286,81)"/>
<path d="M0 0 C1.65 0 3.3 0 5 0 C5 0.33 5 0.66 5 1 C3.35 1 1.7 1 0 1 C0 0.67 0 0.34 0 0 Z " fill="#F6A0B9" transform="translate(221,81)"/>
<path d="M0 0 C4 1 4 1 4 1 Z " fill="#803151" transform="translate(343,370)"/>
<path d="M0 0 C4 1 4 1 4 1 Z " fill="#803250" transform="translate(165,370)"/>
<path d="M0 0 C1 4 1 4 1 4 Z " fill="#793551" transform="translate(371,344)"/>
<path d="M0 0 C1 4 1 4 1 4 Z " fill="#783551" transform="translate(140,344)"/>
<path d="M0 0 C1 4 1 4 1 4 Z " fill="#F5A8C0" transform="translate(167,335)"/>
<path d="M0 0 C1 4 1 4 1 4 Z " fill="#7E3251" transform="translate(358,82)"/>
<path d="M0 0 C0.66 0.33 1.32 0.66 2 1 C1.01 1 0.02 1 -1 1 C-0.67 0.67 -0.34 0.34 0 0 Z " fill="#E78BA1" transform="translate(279,82)"/>
<path d="M0 0 C1 4 1 4 1 4 Z " fill="#7E3351" transform="translate(153,82)"/>
<path d="M0 0 C0.99 0.33 1.98 0.66 3 1 C2.01 1 1.02 1 0 1 C0 0.67 0 0.34 0 0 Z " fill="#E889A2" transform="translate(231,82)"/>
<path d="M0 0 C1 4 1 4 1 4 Z " fill="#77354F" transform="translate(154,78)"/>
<path d="M0 0 C1 4 1 4 1 4 Z " fill="#78354F" transform="translate(357,78)"/>
<path d="M0 0 C4 1 4 1 4 1 Z " fill="#7F3351" transform="translate(296,21)"/>
<path d="M0 0 C3 1 3 1 3 1 Z " fill="#793551" transform="translate(262,491)"/>
<path d="M0 0 C3 1 3 1 3 1 Z " fill="#793651" transform="translate(247,491)"/>
<path d="" fill="#7F3251" transform="translate(0,0)"/>
<path d="" fill="#813251" transform="translate(0,0)"/>
<path d="M0 0 C3 1 3 1 3 1 Z " fill="#FFD4E3" transform="translate(181,348)"/>
<path d="" fill="#E88DA7" transform="translate(0,0)"/>
<path d="" fill="#7E334F" transform="translate(0,0)"/>
<path d="" fill="#7F334F" transform="translate(0,0)"/>
<path d="" fill="#7B3451" transform="translate(0,0)"/>
<path d="" fill="#7A3451" transform="translate(0,0)"/>
<path d="" fill="#7D334F" transform="translate(0,0)"/>
<path d="" fill="#7C344F" transform="translate(0,0)"/>
<path d="M0 0 C3 1 3 1 3 1 Z " fill="#783550" transform="translate(300,22)"/>
<path d="" fill="#7C3451" transform="translate(0,0)"/>
<path d="" fill="#7C3351" transform="translate(0,0)"/>
<path d="" fill="#7D3351" transform="translate(0,0)"/>
<path d="" fill="#7F324F" transform="translate(0,0)"/>
<path d="" fill="#7C3551" transform="translate(0,0)"/>
<path d="" fill="#7D3550" transform="translate(0,0)"/>
<path d="" fill="#813351" transform="translate(0,0)"/>
<path d="" fill="#7E3250" transform="translate(0,0)"/>
<path d="" fill="#813052" transform="translate(0,0)"/>
<path d="" fill="#7E334F" transform="translate(0,0)"/>
<path d="" fill="#7C3551" transform="translate(0,0)"/>
<path d="" fill="#7B3650" transform="translate(0,0)"/>
<path d="" fill="#7E3351" transform="translate(0,0)"/>
<path d="" fill="#7F334F" transform="translate(0,0)"/>
<path d="" fill="#EE8FA9" transform="translate(0,0)"/>
<path d="" fill="#ED94AB" transform="translate(0,0)"/>
<path d="" fill="#E996B1" transform="translate(0,0)"/>
<path d="" fill="#E48AA6" transform="translate(0,0)"/>
<path d="" fill="#EB95AF" transform="translate(0,0)"/>
<path d="" fill="#F495AF" transform="translate(0,0)"/>
<path d="" fill="#F496AF" transform="translate(0,0)"/>
<path d="" fill="#F2B9CD" transform="translate(0,0)"/>
<path d="" fill="#E2839C" transform="translate(0,0)"/>
<path d="" fill="#E1829B" transform="translate(0,0)"/>
<path d="" fill="#F1BACF" transform="translate(0,0)"/>
<path d="" fill="#F29BB3" transform="translate(0,0)"/>
<path d="" fill="#F39BB3" transform="translate(0,0)"/>
<path d="" fill="#E5879E" transform="translate(0,0)"/>
<path d="" fill="#EF90A9" transform="translate(0,0)"/>
<path d="" fill="#EF90A8" transform="translate(0,0)"/>
<path d="" fill="#E4869F" transform="translate(0,0)"/>
<path d="" fill="#F098B0" transform="translate(0,0)"/>
<path d="" fill="#EF97AF" transform="translate(0,0)"/>
<path d="" fill="#EC9FB7" transform="translate(0,0)"/>
<path d="" fill="#ED9FB8" transform="translate(0,0)"/>
<path d="" fill="#803251" transform="translate(0,0)"/>
<path d="" fill="#80324F" transform="translate(0,0)"/>
<path d="" fill="#80324F" transform="translate(0,0)"/>
<path d="" fill="#81334F" transform="translate(0,0)"/>
<path d="" fill="#7E324F" transform="translate(0,0)"/>
<path d="" fill="#7E3350" transform="translate(0,0)"/>
<path d="" fill="#7E3150" transform="translate(0,0)"/>
<path d="" fill="#7F334F" transform="translate(0,0)"/>
<path d="" fill="#803352" transform="translate(0,0)"/>
<path d="" fill="#7D334F" transform="translate(0,0)"/>
<path d="" fill="#803250" transform="translate(0,0)"/>
<path d="" fill="#7F3350" transform="translate(0,0)"/>
<path d="" fill="#7D3351" transform="translate(0,0)"/>
<path d="" fill="#7D3350" transform="translate(0,0)"/>
<path d="M0 0 C2 1 2 1 2 1 Z " fill="#7F314E" transform="translate(320,31)"/>
<path d="M0 0 C2 1 2 1 2 1 Z " fill="#803351" transform="translate(190,31)"/>
<path d="" fill="#813450" transform="translate(0,0)"/>
<path d="" fill="#813352" transform="translate(0,0)"/>
<path d="" fill="#803251" transform="translate(0,0)"/>
<path d="" fill="#7F3452" transform="translate(0,0)"/>
<path d="" fill="#7E334F" transform="translate(0,0)"/>
<path d="" fill="#7F3452" transform="translate(0,0)"/>
<path d="" fill="#813352" transform="translate(0,0)"/>
<path d="" fill="#7E334F" transform="translate(0,0)"/>
<path d="" fill="#7E334F" transform="translate(0,0)"/>
<path d="" fill="#803251" transform="translate(0,0)"/>
<path d="" fill="#803251" transform="translate(0,0)"/>
<path d="" fill="#813352" transform="translate(0,0)"/>
<path d="" fill="#7E3351" transform="translate(0,0)"/>
<path d="" fill="#80324F" transform="translate(0,0)"/>
<path d="" fill="#803251" transform="translate(0,0)"/>
<path d="" fill="#813352" transform="translate(0,0)"/>
<path d="" fill="#7E3351" transform="translate(0,0)"/>
<path d="" fill="#803251" transform="translate(0,0)"/>
<path d="" fill="#80324F" transform="translate(0,0)"/>
<path d="" fill="#803251" transform="translate(0,0)"/>
<path d="" fill="#7E334F" transform="translate(0,0)"/>
<path d="" fill="#7E3351" transform="translate(0,0)"/>
<path d="" fill="#803251" transform="translate(0,0)"/>
<path d="" fill="#803251" transform="translate(0,0)"/>
<path d="" fill="#E98DA5" transform="translate(0,0)"/>
<path d="" fill="#EA90A7" transform="translate(0,0)"/>
<path d="" fill="#D17A99" transform="translate(0,0)"/>
<path d="" fill="#E98FA6" transform="translate(0,0)"/>
<path d="" fill="#FFACC3" transform="translate(0,0)"/>
<path d="" fill="#F79BB3" transform="translate(0,0)"/>
<path d="" fill="#F090AA" transform="translate(0,0)"/>
<path d="" fill="#EF90A7" transform="translate(0,0)"/>
<path d="" fill="#EF8EA5" transform="translate(0,0)"/>
<path d="" fill="#F59AB2" transform="translate(0,0)"/>
<path d="" fill="#F699B2" transform="translate(0,0)"/>
<path d="" fill="#DE7F98" transform="translate(0,0)"/>
<path d="" fill="#FFA6BE" transform="translate(0,0)"/>
<path d="" fill="#FFA5BC" transform="translate(0,0)"/>
<path d="" fill="#DA7D96" transform="translate(0,0)"/>
<path d="" fill="#F08EA9" transform="translate(0,0)"/>
<path d="" fill="#DF809B" transform="translate(0,0)"/>
<path d="" fill="#F89EB3" transform="translate(0,0)"/>
<path d="" fill="#FB9EB7" transform="translate(0,0)"/>
<path d="" fill="#DF829B" transform="translate(0,0)"/>
<path d="" fill="#EC8FA5" transform="translate(0,0)"/>
<path d="" fill="#E486A1" transform="translate(0,0)"/>
<path d="" fill="#F199B0" transform="translate(0,0)"/>
<path d="" fill="#EE91AC" transform="translate(0,0)"/>
<path d="" fill="#EC92AC" transform="translate(0,0)"/>
<path d="" fill="#F298AE" transform="translate(0,0)"/>
<path d="" fill="#E1869E" transform="translate(0,0)"/>
<path d="" fill="#E3839F" transform="translate(0,0)"/>
<path d="" fill="#ED90A9" transform="translate(0,0)"/>
<path d="" fill="#F295AD" transform="translate(0,0)"/>
<path d="" fill="#EF94AC" transform="translate(0,0)"/>
<path d="" fill="#EF90A7" transform="translate(0,0)"/>
<path d="" fill="#E4879F" transform="translate(0,0)"/>
<path d="" fill="#E888A4" transform="translate(0,0)"/>
<path d="" fill="#E78AA5" transform="translate(0,0)"/>
<path d="" fill="#80324F" transform="translate(0,0)"/>
<path d="" fill="#80324F" transform="translate(0,0)"/>
<path d="" fill="#7E3253" transform="translate(0,0)"/>
<path d="" fill="#7D3451" transform="translate(0,0)"/>
<path d="" fill="#7F3450" transform="translate(0,0)"/>
<path d="" fill="#7D324E" transform="translate(0,0)"/>
<path d="" fill="#80324F" transform="translate(0,0)"/>
<path d="" fill="#7E334F" transform="translate(0,0)"/>
<path d="" fill="#803251" transform="translate(0,0)"/>
<path d="" fill="#813352" transform="translate(0,0)"/>
<path d="" fill="#803251" transform="translate(0,0)"/>
<path d="" fill="#813352" transform="translate(0,0)"/>
<path d="" fill="#803251" transform="translate(0,0)"/>
<path d="" fill="#803251" transform="translate(0,0)"/>
<path d="" fill="#803050" transform="translate(0,0)"/>
<path d="" fill="#7F3150" transform="translate(0,0)"/>
<path d="" fill="#823151" transform="translate(0,0)"/>
<path d="" fill="#7F3450" transform="translate(0,0)"/>
<path d="" fill="#803251" transform="translate(0,0)"/>
<path d="" fill="#813352" transform="translate(0,0)"/>
</svg>
