<?xml version="1.0" encoding="UTF-8"?>
<svg version="1.1" xmlns="http://www.w3.org/2000/svg" width="360" height="360">
<path d="M0 0 C1.88643974 -0.00472824 1.88643974 -0.00472824 3.81098938 -0.009552 C5.16850825 -0.00776292 6.52602681 -0.00571214 7.88354492 -0.00341797 C9.28504961 -0.0040921 10.68655418 -0.00506304 12.08805847 -0.00631714 C15.01395795 -0.00778652 17.93982676 -0.0056624 20.86572266 -0.00097656 C24.62307808 0.00474675 28.38036247 0.00142059 32.13771534 -0.00454903 C35.02608278 -0.00815268 37.9144332 -0.00701742 40.80280113 -0.00442123 C42.18914486 -0.00375279 43.57549011 -0.00457754 44.96183205 -0.00690079 C46.89122108 -0.0094269 48.82061553 -0.00489725 50.75 0 C52.39830559 0.00119339 52.39830559 0.00119339 54.07991028 0.00241089 C56.55151367 0.12939453 56.55151367 0.12939453 57.55151367 1.12939453 C57.67639125 2.93866734 57.72722213 4.7533556 57.73901367 6.56689453 C57.75319336 7.55560547 57.76737305 8.54431641 57.78198242 9.56298828 C57.55151367 12.12939453 57.55151367 12.12939453 55.55151367 14.12939453 C53.17398071 14.36317444 53.17398071 14.36317444 50.15551758 14.34057617 C49.02739655 14.33719742 47.89927551 14.33381866 46.73696899 14.33033752 C45.51303436 14.3168779 44.28909973 14.30341827 43.02807617 14.28955078 C41.7752182 14.28434921 40.52236023 14.27914764 39.23153687 14.27378845 C35.89567013 14.25895494 32.56007529 14.23603965 29.2243042 14.20843506 C24.53055022 14.17052241 19.8367677 14.1427782 15.14291382 14.12071228 C12.64322662 14.10844406 10.1435589 14.09082976 7.64395142 14.06739807 C6.50952606 14.06086716 5.37510071 14.05433624 4.20629883 14.04760742 C2.7097728 14.03522789 2.7097728 14.03522789 1.18301392 14.02259827 C-1.40607141 14.03659002 -1.40607141 14.03659002 -3.6769104 14.69700623 C-5.44848633 15.12939453 -5.44848633 15.12939453 -7.44848633 14.12939453 C-7.44848633 14.78939453 -7.44848633 15.44939453 -7.44848633 16.12939453 C-8.03629883 16.25443359 -8.62411133 16.37947266 -9.22973633 16.50830078 C-13.63704305 17.74203629 -17.17070234 20.10658596 -19.63891602 24.01391602 C-23.23344504 32.20532904 -23.11739669 40.48162726 -23.19848633 49.25439453 C-23.22670019 50.79869802 -23.25663501 52.34297107 -23.28833008 53.88720703 C-23.3615469 57.63446027 -23.41151188 61.38158779 -23.44848633 65.12939453 C-22.50523499 65.12051208 -21.56198364 65.11162964 -20.59014893 65.10247803 C-11.70291172 65.02140762 -2.81574949 64.96143666 6.07177353 64.92214584 C10.64102331 64.90126688 15.2099747 64.87294382 19.77905273 64.82763672 C24.1881224 64.78418965 28.59690498 64.76025975 33.00617218 64.74988556 C34.68872854 64.7424921 36.3712691 64.72805437 38.05370331 64.7064743 C40.40976468 64.6774545 42.7646384 64.67343779 45.12084961 64.67529297 C45.81712463 64.66091187 46.51339966 64.64653076 47.23077393 64.63171387 C50.56394056 64.66013041 52.27537642 64.9177569 54.95343018 66.97027588 C58.36257726 71.57626366 57.77032616 76.52318856 57.80151367 82.00439453 C57.83245117 83.35210937 57.83245117 83.35210937 57.86401367 84.72705078 C57.89315874 89.65985275 57.86448492 93.18169515 54.55151367 97.12939453 C51.55151367 99.12939453 51.55151367 99.12939453 48.55151367 99.12939453 C48.49082829 99.95602002 48.49082829 99.95602002 48.42891693 100.79934502 C46.93817291 120.81935146 44.9726283 140.78662889 42.98179436 160.76166773 C42.70489872 163.54096352 42.42862599 166.32032057 42.15254211 169.09969711 C41.18678811 178.82096246 40.21823667 188.54194485 39.24731445 198.26269531 C38.34547946 207.29262821 37.4503911 216.3232137 36.55822039 225.35410607 C35.78734455 233.15383788 35.01152312 240.95306775 34.23191023 248.75193107 C33.76826341 253.39102645 33.30665413 258.03030226 32.85017395 262.6701088 C32.42244079 267.01622918 31.98855911 271.36169236 31.54996681 275.70672989 C31.39052073 277.29679302 31.23326269 278.88707736 31.07839012 280.47759247 C30.86621607 282.6530368 30.64605766 284.82753422 30.4239502 287.00198364 C30.30302757 288.21669909 30.18210495 289.43141453 30.05751801 290.68293953 C28.69989497 299.92986965 28.69989497 299.92986965 25.72022152 303.04224396 C23.23336819 304.28887754 21.62669142 304.51112165 18.85218811 304.52380371 C17.91153 304.5351535 16.97087189 304.5465033 16.00170898 304.55819702 C14.9766626 304.55526642 13.95161621 304.55233582 12.89550781 304.54931641 C11.26807899 304.56202072 11.26807899 304.56202072 9.60777283 304.57498169 C6.01728633 304.59840252 2.42722707 304.59937262 -1.16333008 304.59814453 C-3.65670443 304.60524288 -6.15007715 304.61294139 -8.64344788 304.62121582 C-13.87138234 304.63467223 -19.09920652 304.63640495 -24.32714844 304.63037109 C-29.69811378 304.62446402 -35.0685862 304.6385598 -40.43945312 304.67138672 C-46.92156211 304.71047605 -53.40324708 304.72519052 -59.88546944 304.72059631 C-62.35704938 304.72229147 -64.82863708 304.73197178 -67.30015373 304.7497406 C-70.75495904 304.7718452 -74.20828622 304.76227006 -77.66308594 304.74462891 C-78.68610809 304.75789215 -79.70913025 304.7711554 -80.76315308 304.78482056 C-85.14844461 304.73272198 -87.73771576 304.56646097 -91.52496338 302.23760986 C-94.25181098 297.83130449 -94.5722075 293.8857404 -95.01025391 288.78271484 C-95.12165364 287.69880085 -95.23305338 286.61488686 -95.34782887 285.49812698 C-95.66384708 282.39261982 -95.95998702 279.28579287 -96.25172853 276.17793465 C-96.59862444 272.56623436 -96.9794497 268.95808656 -97.35702515 265.3494873 C-98.32589654 256.04598555 -99.25805618 246.73897216 -100.18546271 237.4312582 C-100.65239829 232.74904543 -101.12179374 228.06707908 -101.59077454 223.3850708 C-102.37495373 215.55230058 -103.15707771 207.71932719 -103.93798828 199.88623047 C-104.83992127 190.83951219 -105.74547131 181.79316117 -106.65282601 172.7469852 C-107.43601897 164.93773224 -108.21728608 157.12828837 -108.9969371 149.318681 C-109.46088501 144.6714241 -109.92549384 140.02423591 -110.39185143 135.37722015 C-110.82831825 131.02698237 -111.26236716 126.67651002 -111.69454193 122.32584381 C-111.85332483 120.73140493 -112.01294984 119.13704965 -112.17347908 117.54278564 C-112.39237291 115.36751011 -112.60821487 113.19195252 -112.82328796 111.01629639 C-112.94475535 109.79973736 -113.06622274 108.58317833 -113.19137096 107.32975388 C-113.41264079 104.57557019 -113.50060918 101.89003682 -113.44848633 99.12939453 C-114.21161133 99.02626953 -114.97473633 98.92314453 -115.76098633 98.81689453 C-118.66716611 98.07345319 -119.64761681 97.4705249 -121.44848633 95.12939453 C-122.92258831 90.70708859 -122.67344462 86.38711037 -122.69848633 81.75439453 C-122.72942383 80.33513672 -122.72942383 80.33513672 -122.76098633 78.88720703 C-122.81038006 70.09512354 -122.81038006 70.09512354 -119.44848633 66.12939453 C-116.3757893 64.59304602 -113.15647514 64.99971628 -109.78588867 65.01586914 C-108.9955574 65.01572311 -108.20522614 65.01557709 -107.39094543 65.01542664 C-104.77207722 65.0161247 -102.15327966 65.02391214 -99.53442383 65.03173828 C-97.72124266 65.03360284 -95.908061 65.03502656 -94.09487915 65.036026 C-89.3174501 65.03984821 -84.54005134 65.04967599 -79.76263428 65.06072998 C-74.8896933 65.07095046 -70.01674743 65.07552499 -65.14379883 65.08056641 C-55.57868134 65.0912985 -46.01358635 65.10837139 -36.44848633 65.12939453 C-36.47990723 63.57998169 -36.47990723 63.57998169 -36.51196289 61.99926758 C-36.58510461 58.11725066 -36.63055153 54.23529286 -36.66821289 50.3527832 C-36.68816132 48.68178011 -36.71533033 47.01084529 -36.75024414 45.34008789 C-37.01660449 32.25317711 -35.48529745 22.43855527 -28.44848633 11.12939453 C-27.45848633 11.12939453 -26.46848633 11.12939453 -25.44848633 11.12939453 C-25.44848633 10.13939453 -25.44848633 9.14939453 -25.44848633 8.12939453 C-24.45848633 7.79939453 -23.46848633 7.46939453 -22.44848633 7.12939453 C-22.11848633 6.46939453 -21.78848633 5.80939453 -21.44848633 5.12939453 C-19.80088253 4.41691721 -18.13085104 3.7553907 -16.44848633 3.12939453 C-15.48942383 2.60345703 -15.48942383 2.60345703 -14.51098633 2.06689453 C-9.92985745 -0.01543678 -4.95542361 0.00357484 0 0 Z " fill="#E53E3E" transform="translate(212.448486328125,27.87060546875)"/>
<path d="M0 0 C0.33 5.28 0.66 10.56 1 16 C2.8257959 15.98428955 4.6515918 15.9685791 6.53271484 15.95239258 C12.59953372 15.90380284 18.66630617 15.869449 24.73326683 15.84456348 C28.40773878 15.82898022 32.08199806 15.80787835 35.75634766 15.77368164 C39.30956709 15.74082334 42.86258338 15.72309196 46.41594315 15.71536827 C48.41541501 15.70721684 50.4148064 15.68384076 52.41415405 15.66011047 C65.02138149 15.65780766 75.73286233 18.3564871 85.23046875 27.0390625 C94.45499584 36.83471416 98.30537232 47.86294506 98.29052734 61.1472168 C98.29724457 62.0248317 98.30396179 62.90244659 98.31088257 63.80665588 C98.32976864 66.68756894 98.3337823 69.56824776 98.3359375 72.44921875 C98.34237298 74.46930534 98.34910189 76.48939102 98.35610962 78.50947571 C98.3680597 82.73835407 98.37179288 86.96715088 98.37060547 91.19604492 C98.37040265 96.5845342 98.39767655 101.97249389 98.43214989 107.36085796 C98.45451582 111.53304897 98.45844001 115.7051146 98.45738602 119.87735939 C98.45972849 121.86226026 98.46847464 123.84716532 98.48405075 125.83200645 C98.59972002 142.0966672 97.4039804 155.3474086 86 168 C83.49298409 170.33210782 80.92559173 172.2274356 78 174 C77.36320312 174.38800781 76.72640625 174.77601563 76.0703125 175.17578125 C67.89144162 179.69222601 59.01040792 180.30453365 49.8359375 180.1953125 C48.91785309 180.1924826 47.99976868 180.18965271 47.05386353 180.18673706 C44.16076864 180.17566399 41.26799914 180.15058467 38.375 180.125 C36.39713993 180.11495352 34.41927494 180.10583061 32.44140625 180.09765625 C27.62748141 180.07576705 22.8137956 180.04132832 18 180 C18.3097647 182.8961496 18.62271188 185.79189576 18.9375 188.6875 C19.02451172 189.50412109 19.11152344 190.32074219 19.20117188 191.16210938 C19.63758728 195.15450219 20.11302376 199.07652852 21 203 C18 204 18 204 15.41661072 203.27012634 C11.43856537 199.53321271 11.77969026 194.93204008 11.33422852 189.67797852 C11.21633972 188.50595383 11.09845093 187.33392914 10.97698975 186.12638855 C10.65632826 182.8925461 10.35655457 179.65755046 10.06554151 176.42093015 C9.75031892 172.97199948 9.40819964 169.52573392 9.06907654 166.0790863 C8.42383509 159.47998517 7.80224494 152.87887699 7.18918222 146.27671713 C6.51332307 139.00847949 5.81397627 131.74258407 5.11117864 124.47690892 C4.21315997 115.19199981 3.31944025 105.90671047 2.4425354 96.61978149 C1.08765721 82.27845148 -0.29408702 67.94069481 -1.74658203 53.60888672 C-1.88891629 52.20188274 -2.03124681 50.79487839 -2.17357349 49.38787365 C-2.84326659 42.7743645 -3.51860474 36.1614694 -4.20054626 29.54920959 C-4.43988286 27.19810124 -4.67911131 24.84698187 -4.91821289 22.49584961 C-5.02860209 21.44256659 -5.13899128 20.38928356 -5.2527256 19.30408287 C-6.77968798 4.18809597 -6.77968798 4.18809597 -4.6875 1 C-3 0 -3 0 0 0 Z " fill="#FE4646" transform="translate(108,126)"/>
<path d="M0 0 C0.68648337 -0.00467997 1.37296675 -0.00935994 2.08025265 -0.01418173 C4.38580959 -0.02616971 6.69077629 -0.01666009 8.99633789 -0.00723267 C10.64706775 -0.0112967 12.29779488 -0.01663762 13.94851685 -0.02316284 C18.43606841 -0.03686238 22.92341352 -0.03152696 27.41096878 -0.02202559 C32.10210995 -0.01444262 36.79323316 -0.0214708 41.484375 -0.02618408 C49.36306947 -0.03164562 57.24167965 -0.0244396 65.12036133 -0.01016235 C74.23572641 0.00616493 83.35089021 0.0008767 92.46625042 -0.01564157 C100.2854189 -0.02924511 108.1045267 -0.03118165 115.92370319 -0.02332556 C120.59686394 -0.01864281 125.26993001 -0.01804069 129.94308472 -0.02793503 C134.33602215 -0.03658598 138.72869947 -0.0306172 143.12160873 -0.01325226 C144.73612918 -0.00927738 146.35067142 -0.01043852 147.96518326 -0.01704025 C150.16474951 -0.02520665 152.36347593 -0.01499476 154.56298828 0 C155.79521622 0.00113108 157.02744415 0.00226215 158.29701233 0.00342751 C161.28149414 0.38095093 161.28149414 0.38095093 163.1781311 1.74776268 C164.78866792 4.13166509 164.65348681 5.99837949 164.64477539 8.85360718 C164.64380859 10.44978882 164.64380859 10.44978882 164.64282227 12.07821655 C164.62670898 13.1887439 164.6105957 14.29927124 164.59399414 15.44345093 C164.5972168 16.55784546 164.60043945 17.67223999 164.60375977 18.82040405 C164.54843553 27.11400954 164.54843553 27.11400954 162.28149414 29.38095093 C159.3860321 29.63263321 159.3860321 29.63263321 155.60058594 29.63491821 C154.55883351 29.63959818 154.55883351 29.63959818 153.49603558 29.6443727 C151.15750959 29.65238113 148.81924104 29.64601813 146.48071289 29.63973999 C144.80880582 29.6424486 143.13689994 29.64600879 141.46499634 29.65036011 C136.91550921 29.65950193 132.36611246 29.6559325 127.81662369 29.64960194 C123.06361898 29.6445512 118.31062219 29.6492308 113.55761719 29.65237427 C105.57461146 29.65601662 97.5916427 29.65120776 89.60864258 29.64169312 C80.3689169 29.63080805 71.12927947 29.63433344 61.88955593 29.64534593 C53.96767386 29.65441114 46.04581842 29.65570784 38.12393284 29.65046859 C33.38765071 29.64734466 28.65141011 29.64695109 23.91513062 29.65354156 C19.4631676 29.65930329 15.01131877 29.65533976 10.55936813 29.64375305 C8.92185023 29.64110016 7.28432278 29.64188222 5.64680862 29.64627838 C3.41854182 29.65171063 1.19064529 29.64492838 -1.03759766 29.63491821 C-2.28679489 29.63416416 -3.53599213 29.63341011 -4.82304382 29.63263321 C-7.71850586 29.38095093 -7.71850586 29.38095093 -9.71850586 27.38095093 C-10.17506383 23.42046271 -10.04252628 19.42721283 -10.03100586 15.44345093 C-10.04711914 14.33292358 -10.06323242 13.22239624 -10.07983398 12.07821655 C-10.08047852 11.01409546 -10.08112305 9.94997437 -10.08178711 8.85360718 C-10.08476807 7.87657837 -10.08774902 6.89954956 -10.09082031 5.89291382 C-9.71850586 3.38095093 -9.71850586 3.38095093 -8.61514282 1.74776268 C-5.77719028 -0.2974083 -3.47145737 0.00318649 0 0 Z " fill="#F5F5FE" transform="translate(102.718505859375,94.61904907226563)"/>
<path d="M0 0 C1.88643974 -0.00472824 1.88643974 -0.00472824 3.81098938 -0.009552 C5.16850825 -0.00776292 6.52602681 -0.00571214 7.88354492 -0.00341797 C9.28504961 -0.0040921 10.68655418 -0.00506304 12.08805847 -0.00631714 C15.01395795 -0.00778652 17.93982676 -0.0056624 20.86572266 -0.00097656 C24.62307808 0.00474675 28.38036247 0.00142059 32.13771534 -0.00454903 C35.02608278 -0.00815268 37.9144332 -0.00701742 40.80280113 -0.00442123 C42.18914486 -0.00375279 43.57549011 -0.00457754 44.96183205 -0.00690079 C46.89122108 -0.0094269 48.82061553 -0.00489725 50.75 0 C52.39830559 0.00119339 52.39830559 0.00119339 54.07991028 0.00241089 C56.55151367 0.12939453 56.55151367 0.12939453 57.55151367 1.12939453 C57.67639125 2.93866734 57.72722213 4.7533556 57.73901367 6.56689453 C57.75319336 7.55560547 57.76737305 8.54431641 57.78198242 9.56298828 C57.55151367 12.12939453 57.55151367 12.12939453 55.55151367 14.12939453 C53.17398071 14.36317444 53.17398071 14.36317444 50.15551758 14.34057617 C49.02739655 14.33719742 47.89927551 14.33381866 46.73696899 14.33033752 C45.51303436 14.3168779 44.28909973 14.30341827 43.02807617 14.28955078 C41.7752182 14.28434921 40.52236023 14.27914764 39.23153687 14.27378845 C35.89567013 14.25895494 32.56007529 14.23603965 29.2243042 14.20843506 C24.53055022 14.17052241 19.8367677 14.1427782 15.14291382 14.12071228 C12.64322662 14.10844406 10.1435589 14.09082976 7.64395142 14.06739807 C6.50952606 14.06086716 5.37510071 14.05433624 4.20629883 14.04760742 C2.7097728 14.03522789 2.7097728 14.03522789 1.18301392 14.02259827 C-1.40607141 14.03659002 -1.40607141 14.03659002 -3.6769104 14.69700623 C-5.44848633 15.12939453 -5.44848633 15.12939453 -7.44848633 14.12939453 C-7.44848633 14.78939453 -7.44848633 15.44939453 -7.44848633 16.12939453 C-8.03629883 16.25443359 -8.62411133 16.37947266 -9.22973633 16.50830078 C-13.63704305 17.74203629 -17.17070234 20.10658596 -19.63891602 24.01391602 C-23.23344504 32.20532904 -23.11739669 40.48162726 -23.19848633 49.25439453 C-23.22670019 50.79869802 -23.25663501 52.34297107 -23.28833008 53.88720703 C-23.3615469 57.63446027 -23.41151188 61.38158779 -23.44848633 65.12939453 C-22.50523499 65.12051208 -21.56198364 65.11162964 -20.59014893 65.10247803 C-11.70291172 65.02140762 -2.81574949 64.96143666 6.07177353 64.92214584 C10.64102331 64.90126688 15.2099747 64.87294382 19.77905273 64.82763672 C24.1881224 64.78418965 28.59690498 64.76025975 33.00617218 64.74988556 C34.68872854 64.7424921 36.3712691 64.72805437 38.05370331 64.7064743 C40.40976468 64.6774545 42.7646384 64.67343779 45.12084961 64.67529297 C45.81712463 64.66091187 46.51339966 64.64653076 47.23077393 64.63171387 C50.56394056 64.66013041 52.27537642 64.9177569 54.95343018 66.97027588 C58.36257726 71.57626366 57.77032616 76.52318856 57.80151367 82.00439453 C57.83245117 83.35210937 57.83245117 83.35210937 57.86401367 84.72705078 C57.89315874 89.65985275 57.86448492 93.18169515 54.55151367 97.12939453 C51.55151367 99.12939453 51.55151367 99.12939453 48.55151367 99.12939453 C48.49082829 99.95602002 48.49082829 99.95602002 48.42891693 100.79934502 C46.93817291 120.81935146 44.9726283 140.78662889 42.98179436 160.76166773 C42.70489872 163.54096352 42.42862599 166.32032057 42.15254211 169.09969711 C41.18678811 178.82096246 40.21823667 188.54194485 39.24731445 198.26269531 C38.34547946 207.29262821 37.4503911 216.3232137 36.55822039 225.35410607 C35.78734455 233.15383788 35.01152312 240.95306775 34.23191023 248.75193107 C33.76826341 253.39102645 33.30665413 258.03030226 32.85017395 262.6701088 C32.42244079 267.01622918 31.98855911 271.36169236 31.54996681 275.70672989 C31.39052073 277.29679302 31.23326269 278.88707736 31.07839012 280.47759247 C30.86621607 282.6530368 30.64605766 284.82753422 30.4239502 287.00198364 C30.30302757 288.21669909 30.18210495 289.43141453 30.05751801 290.68293953 C28.69989497 299.92986965 28.69989497 299.92986965 25.72022152 303.04224396 C23.23336819 304.28887754 21.62669142 304.51112165 18.85218811 304.52380371 C17.91153 304.5351535 16.97087189 304.5465033 16.00170898 304.55819702 C14.9766626 304.55526642 13.95161621 304.55233582 12.89550781 304.54931641 C11.26807899 304.56202072 11.26807899 304.56202072 9.60777283 304.57498169 C6.01728633 304.59840252 2.42722707 304.59937262 -1.16333008 304.59814453 C-3.65670443 304.60524288 -6.15007715 304.61294139 -8.64344788 304.62121582 C-13.87138234 304.63467223 -19.09920652 304.63640495 -24.32714844 304.63037109 C-29.69811378 304.62446402 -35.0685862 304.6385598 -40.43945312 304.67138672 C-46.92156211 304.71047605 -53.40324708 304.72519052 -59.88546944 304.72059631 C-62.35704938 304.72229147 -64.82863708 304.73197178 -67.30015373 304.7497406 C-70.75495904 304.7718452 -74.20828622 304.76227006 -77.66308594 304.74462891 C-78.68610809 304.75789215 -79.70913025 304.7711554 -80.76315308 304.78482056 C-85.14844461 304.73272198 -87.73771576 304.56646097 -91.52496338 302.23760986 C-94.25181098 297.83130449 -94.5722075 293.8857404 -95.01025391 288.78271484 C-95.12165364 287.69880085 -95.23305338 286.61488686 -95.34782887 285.49812698 C-95.66384708 282.39261982 -95.95998702 279.28579287 -96.25172853 276.17793465 C-96.59862444 272.56623436 -96.9794497 268.95808656 -97.35702515 265.3494873 C-98.32589654 256.04598555 -99.25805618 246.73897216 -100.18546271 237.4312582 C-100.65239829 232.74904543 -101.12179374 228.06707908 -101.59077454 223.3850708 C-102.37495373 215.55230058 -103.15707771 207.71932719 -103.93798828 199.88623047 C-104.83992127 190.83951219 -105.74547131 181.79316117 -106.65282601 172.7469852 C-107.43601897 164.93773224 -108.21728608 157.12828837 -108.9969371 149.318681 C-109.46088501 144.6714241 -109.92549384 140.02423591 -110.39185143 135.37722015 C-110.82831825 131.02698237 -111.26236716 126.67651002 -111.69454193 122.32584381 C-111.85332483 120.73140493 -112.01294984 119.13704965 -112.17347908 117.54278564 C-112.39237291 115.36751011 -112.60821487 113.19195252 -112.82328796 111.01629639 C-112.94475535 109.79973736 -113.06622274 108.58317833 -113.19137096 107.32975388 C-113.41264079 104.57557019 -113.50060918 101.89003682 -113.44848633 99.12939453 C-114.21161133 99.02626953 -114.97473633 98.92314453 -115.76098633 98.81689453 C-118.66716611 98.07345319 -119.64761681 97.4705249 -121.44848633 95.12939453 C-122.92258831 90.70708859 -122.67344462 86.38711037 -122.69848633 81.75439453 C-122.72942383 80.33513672 -122.72942383 80.33513672 -122.76098633 78.88720703 C-122.81038006 70.09512354 -122.81038006 70.09512354 -119.44848633 66.12939453 C-116.3757893 64.59304602 -113.15647514 64.99971628 -109.78588867 65.01586914 C-108.9955574 65.01572311 -108.20522614 65.01557709 -107.39094543 65.01542664 C-104.77207722 65.0161247 -102.15327966 65.02391214 -99.53442383 65.03173828 C-97.72124266 65.03360284 -95.908061 65.03502656 -94.09487915 65.036026 C-89.3174501 65.03984821 -84.54005134 65.04967599 -79.76263428 65.06072998 C-74.8896933 65.07095046 -70.01674743 65.07552499 -65.14379883 65.08056641 C-55.57868134 65.0912985 -46.01358635 65.10837139 -36.44848633 65.12939453 C-36.47990723 63.57998169 -36.47990723 63.57998169 -36.51196289 61.99926758 C-36.58510461 58.11725066 -36.63055153 54.23529286 -36.66821289 50.3527832 C-36.68816132 48.68178011 -36.71533033 47.01084529 -36.75024414 45.34008789 C-37.01660449 32.25317711 -35.48529745 22.43855527 -28.44848633 11.12939453 C-27.45848633 11.12939453 -26.46848633 11.12939453 -25.44848633 11.12939453 C-25.44848633 10.13939453 -25.44848633 9.14939453 -25.44848633 8.12939453 C-24.45848633 7.79939453 -23.46848633 7.46939453 -22.44848633 7.12939453 C-22.11848633 6.46939453 -21.78848633 5.80939453 -21.44848633 5.12939453 C-19.80088253 4.41691721 -18.13085104 3.7553907 -16.44848633 3.12939453 C-15.48942383 2.60345703 -15.48942383 2.60345703 -14.51098633 2.06689453 C-9.92985745 -0.01543678 -4.95542361 0.00357484 0 0 Z M-118.34512329 68.49620628 C-119.95566011 70.8801087 -119.820479 72.7468231 -119.81176758 75.60205078 C-119.81112305 76.66617188 -119.81047852 77.73029297 -119.80981445 78.82666016 C-119.79370117 79.9371875 -119.77758789 81.04771484 -119.76098633 82.19189453 C-119.76420898 83.30628906 -119.76743164 84.42068359 -119.77075195 85.56884766 C-120.14307864 91.41534257 -120.14307864 91.41534257 -117.44848633 96.12939453 C-114.40888308 96.43541881 -114.40888308 96.43541881 -110.76757812 96.38336182 C-110.07307651 96.3864818 -109.37857489 96.38960178 -108.66302776 96.39281631 C-106.32450177 96.40082473 -103.98623323 96.39446174 -101.64770508 96.38818359 C-99.97579801 96.3908922 -98.30389213 96.39445239 -96.63198853 96.39880371 C-92.08250139 96.40794554 -87.53310465 96.4043761 -82.98361588 96.39804554 C-78.23061116 96.3929948 -73.47761438 96.3976744 -68.72460938 96.40081787 C-60.74160365 96.40446023 -52.75863488 96.39965137 -44.77563477 96.39013672 C-35.53590909 96.37925165 -26.29627166 96.38277704 -17.05654812 96.39378953 C-9.13466605 96.40285474 -1.2128106 96.40415144 6.70907497 96.39891219 C11.44535711 96.39578827 16.18159771 96.39539469 20.9178772 96.40198517 C25.36984021 96.40774689 29.82168904 96.40378336 34.27363968 96.39219666 C35.91115758 96.38954376 37.54868504 96.39032582 39.18619919 96.39472198 C41.41446599 96.40015423 43.64236252 96.39337198 45.87060547 96.38336182 C47.1198027 96.38260777 48.36899994 96.38185371 49.65605164 96.38107681 C52.67862719 96.43109272 52.67862719 96.43109272 54.55151367 94.12939453 C55.00807164 90.16890631 54.87553409 86.17565643 54.86401367 82.19189453 C54.88012695 81.08136719 54.89624023 79.97083984 54.9128418 78.82666016 C54.91380859 77.23047852 54.91380859 77.23047852 54.91479492 75.60205078 C54.91777588 74.62502197 54.92075684 73.64799316 54.92382812 72.64135742 C54.74028121 70.15515104 54.74028121 70.15515104 53.44815063 68.49620628 C50.6101981 66.4510353 48.30446518 66.7516301 44.83300781 66.7484436 C44.14652444 66.74376363 43.46004107 66.73908366 42.75275517 66.73426187 C40.44719822 66.7222739 38.14223152 66.73178351 35.83666992 66.74121094 C34.18594007 66.73714691 32.53521293 66.73180598 30.88449097 66.72528076 C26.39693941 66.71158122 21.9095943 66.71691665 17.42203903 66.72641802 C12.73089787 66.73400098 8.03977465 66.72697281 3.34863281 66.72225952 C-4.53006166 66.71679799 -12.40867183 66.72400401 -20.28735352 66.73828125 C-29.4027186 66.75460853 -38.5178824 66.7493203 -47.63324261 66.73280203 C-55.45241109 66.71919849 -63.27151889 66.71726196 -71.09069538 66.72511804 C-75.76385613 66.7298008 -80.4369222 66.73040291 -85.1100769 66.72050858 C-89.50301434 66.71185762 -93.89569166 66.7178264 -98.28860092 66.73519135 C-99.90312136 66.73916623 -101.51766361 66.73800508 -103.13217545 66.73140335 C-105.3317417 66.72323695 -107.53046811 66.73344884 -109.72998047 66.7484436 C-110.9622084 66.74957468 -112.19443634 66.75070576 -113.46400452 66.75187111 C-116.42828318 66.88516082 -116.42828318 66.88516082 -118.34512329 68.49620628 Z M-110.44848633 101.12939453 C-110.55179256 104.06769063 -110.48034241 106.74467484 -110.24139404 109.65808105 C-110.18366121 110.5053959 -110.12592838 111.35271075 -110.06644607 112.22570181 C-109.88000135 114.86218772 -109.66844141 117.49550822 -109.44848633 120.12939453 C-109.38543714 120.90358797 -109.32238794 121.67778141 -109.25742817 122.47543526 C-108.80947959 127.87883266 -108.29110696 133.2744552 -107.76196289 138.67041016 C-107.59229722 140.4318413 -107.42293408 142.1933016 -107.25384521 143.95478821 C-106.70546484 149.64905065 -106.14793544 155.34239888 -105.58911133 161.03564453 C-105.4937569 162.00881433 -105.39840246 162.98198414 -105.3001585 163.98464394 C-104.39975847 173.1737531 -103.49641362 182.36256684 -102.58469009 191.55056 C-101.42345288 203.25437769 -100.27815679 214.9595143 -99.15424752 226.66697741 C-98.35933871 234.93393823 -97.54674741 243.19904436 -96.72085166 251.46296644 C-96.22905662 256.38857344 -95.74510652 261.31465996 -95.28009796 266.24287415 C-94.84392783 270.86135396 -94.38598413 275.4771472 -93.91095734 280.09178734 C-93.74041259 281.7861518 -93.57786288 283.48134245 -93.42381287 285.17728615 C-93.21271676 287.48793154 -92.97329275 289.79390067 -92.72637939 292.10095215 C-92.59954899 293.39351677 -92.47271858 294.68608139 -92.34204483 296.01781464 C-91.72481685 299.25989382 -91.72481685 299.25989382 -89.16593742 301.04402161 C-86.44508352 302.13075364 -84.60151148 302.51028504 -81.69137573 302.52380371 C-80.76328094 302.5351535 -79.83518616 302.5465033 -78.87896729 302.55819702 C-77.87307556 302.55526642 -76.86718384 302.55233582 -75.83081055 302.54931641 C-74.76200653 302.55778595 -73.69320251 302.56625549 -72.5920105 302.57498169 C-69.06227701 302.59836516 -65.53297887 302.59937375 -62.00317383 302.59814453 C-59.55127792 302.60524344 -57.09938368 302.61294203 -54.64749146 302.62121582 C-49.51128517 302.63466243 -44.37523263 302.63622769 -39.23901367 302.63037109 C-32.64654278 302.62446404 -26.05480554 302.65510833 -19.46247673 302.69548798 C-14.40109255 302.7212884 -9.33988707 302.72424954 -4.2784462 302.72059631 C-1.84707922 302.72229363 0.58429549 302.7319944 3.0155983 302.7497406 C6.40844753 302.77178631 9.79978451 302.7623018 13.19262695 302.74462891 C14.20256714 302.75789215 15.21250732 302.7711554 16.25305176 302.78482056 C18.78665289 302.75403464 21.08153038 302.69316807 23.55151367 302.12939453 C26.26308884 299.05922526 26.95463035 296.28289264 27.43041992 292.27001953 C27.54708008 291.31611328 27.66374023 290.36220703 27.78393555 289.37939453 C27.89286133 288.38939453 28.00178711 287.39939453 28.11401367 286.37939453 C28.28320312 285.01041016 28.28320312 285.01041016 28.45581055 283.61376953 C29.17982239 277.46573603 29.70343303 271.31188919 30.17510319 265.14025688 C31.34247385 249.9288437 32.81778429 234.75297585 34.34644818 219.57428503 C34.70395711 216.01974995 35.05880264 212.46494873 35.41404724 208.91018677 C36.00821139 202.96859828 36.60429321 197.02720478 37.20166016 191.0859375 C37.89027425 184.23696945 38.57604455 177.38772117 39.26029259 170.53831565 C39.92416171 163.89331265 40.5897204 157.24848 41.25614738 150.60373306 C41.53771837 147.79615273 41.81875789 144.98851997 42.09936714 142.18084335 C42.48994386 138.27403087 42.88302119 134.36747218 43.27636719 130.4609375 C43.44860054 128.73420807 43.44860054 128.73420807 43.62431335 126.97259521 C44.16022792 121.66983791 44.76506357 116.40049755 45.55151367 111.12939453 C45.67984472 109.38211791 45.76846327 107.63106577 45.80151367 105.87939453 C45.82729492 105.04923828 45.85307617 104.21908203 45.87963867 103.36376953 C45.46145694 100.5161511 44.84768549 99.84118939 42.55151367 98.12939453 C39.75311661 97.67553743 39.75311661 97.67553743 36.51635742 97.7484436 C35.2544458 97.73998413 33.99253418 97.73152466 32.69238281 97.72280884 C31.29125848 97.72864194 29.89013542 97.73478646 28.48901367 97.74121094 C27.01562104 97.73714651 25.54223145 97.73180536 24.06884766 97.72528076 C20.06474355 97.71158586 16.06087093 97.71691468 12.0567627 97.72641802 C7.87011075 97.7340034 3.68347888 97.72697213 -0.50317383 97.72225952 C-7.5344601 97.71679869 -14.56565189 97.72400215 -21.59692383 97.73828125 C-29.73072887 97.75460843 -37.86430834 97.74932015 -45.99810791 97.73280203 C-52.97652113 97.71919647 -59.95486637 97.71726294 -66.93328857 97.72511804 C-71.10343118 97.72979969 -75.27346769 97.73040596 -79.44360352 97.72050858 C-83.36378561 97.71185466 -87.28367635 97.71783171 -91.2038269 97.73519135 C-92.64419063 97.73916466 -94.0845788 97.73800772 -95.52493286 97.73140335 C-97.48772314 97.72323195 -99.45056689 97.73528583 -101.41333008 97.7484436 C-102.51281982 97.74957468 -103.61230957 97.75070576 -104.74511719 97.75187111 C-107.86723661 98.18787269 -108.54787035 98.69755667 -110.44848633 101.12939453 Z " fill="#7F0808" transform="translate(212.448486328125,27.87060546875)"/>
<path d="M0 0 C21.85264418 -0.07001915 43.70526991 -0.12295334 65.55800343 -0.15543652 C75.70415301 -0.17091856 85.85023298 -0.19203358 95.99633789 -0.22631836 C104.83762507 -0.25617983 113.67886184 -0.27556527 122.52019805 -0.28226548 C127.20349375 -0.28618327 131.88664522 -0.29541826 136.56989479 -0.31719017 C140.97506191 -0.337504 145.38002494 -0.34384419 149.78523445 -0.33932304 C151.40460569 -0.34015054 153.02398353 -0.34614656 154.64331436 -0.35761642 C156.84956508 -0.37248113 159.05503912 -0.36897626 161.26130676 -0.36076355 C162.49743115 -0.36352893 163.73355555 -0.36629431 165.00713825 -0.36914349 C168 0 168 0 169.89789867 1.36555004 C171.50610044 3.75056242 171.371992 5.6176479 171.36328125 8.47265625 C171.36231445 10.06883789 171.36231445 10.06883789 171.36132812 11.69726562 C171.34521484 12.80779297 171.32910156 13.91832031 171.3125 15.0625 C171.31572266 16.17689453 171.31894531 17.29128906 171.32226562 18.43945312 C171.26694139 26.73305861 171.26694139 26.73305861 169 29 C166.10453796 29.25168228 166.10453796 29.25168228 162.3190918 29.25396729 C161.27733937 29.25864726 161.27733937 29.25864726 160.21454144 29.26342177 C157.87601544 29.2714302 155.5377469 29.26506721 153.19921875 29.25878906 C151.52731168 29.26149767 149.8554058 29.26505786 148.1835022 29.26940918 C143.63401506 29.278551 139.08461832 29.27498157 134.53512955 29.26865101 C129.78212484 29.26360027 125.02912805 29.26827987 120.27612305 29.27142334 C112.29311732 29.2750657 104.31014856 29.27025683 96.32714844 29.26074219 C87.08742276 29.24985712 77.84778533 29.25338251 68.60806179 29.264395 C60.68617972 29.27346021 52.76432428 29.27475691 44.8424387 29.26951766 C40.10615657 29.26639373 35.36991597 29.26600016 30.63363647 29.27259064 C26.18167346 29.27835236 21.72982463 29.27438883 17.27787399 29.26280212 C15.64035609 29.26014923 14.00282864 29.26093129 12.36531448 29.26532745 C10.13704768 29.2707597 7.90915115 29.26397745 5.6809082 29.25396729 C4.43171097 29.25321323 3.18251373 29.25245918 1.89546204 29.25168228 C-1 29 -1 29 -3 27 C-3.14497985 24.41935871 -3.18677545 21.95056116 -3.125 19.375 C-3.11597656 18.66859375 -3.10695313 17.9621875 -3.09765625 17.234375 C-3.07407603 15.48943902 -3.03820461 13.74467705 -3 12 C-2.40316406 12.17015625 -1.80632812 12.3403125 -1.19140625 12.515625 C43.59556225 25.02669495 94.48515018 28.0377468 138 9 C141.96 6.69 145.92 4.38 150 2 C100.5 1.67 51 1.34 0 1 C0 0.67 0 0.34 0 0 Z " fill="#DDDBED" transform="translate(96,95)"/>
<path d="M0 0 C1.65 14.19 3.3 28.38 5 43 C6.98 43.66 8.96 44.32 11 45 C13.41356398 46.92221203 14.70447815 49.0009679 16.0625 51.75 C16.38347656 52.38421875 16.70445313 53.0184375 17.03515625 53.671875 C19.95050211 60.70647472 20.36531139 66.93319277 20.375 74.5 C20.39949219 75.50675781 20.42398438 76.51351562 20.44921875 77.55078125 C20.47450224 83.98121447 19.72715215 87.73487801 16 93 C15.34 93.99 14.68 94.98 14 96 C11.875 97.1875 11.875 97.1875 10 98 C10.12528076 99.14621826 10.25056152 100.29243652 10.37963867 101.47338867 C10.98698519 107.04425109 11.5884145 112.61574353 12.1875 118.1875 C12.29815796 119.21655457 12.40881592 120.24560913 12.52282715 121.30584717 C14.65650781 141.21904918 16.56483027 161.15058965 18.38745117 181.09448242 C18.53874733 182.7352047 18.53874733 182.7352047 18.69309998 184.40907288 C18.88179336 186.45698273 19.06826542 188.50509896 19.25209045 190.55345154 C19.33615646 191.46409866 19.42022247 192.37474579 19.50683594 193.31298828 C19.57835876 194.1016629 19.64988159 194.89033752 19.72357178 195.70291138 C20.02042014 198.16968915 20.48354251 200.57052674 21 203 C18 204 18 204 15.41661072 203.27012634 C11.43856537 199.53321271 11.77969026 194.93204008 11.33422852 189.67797852 C11.21633972 188.50595383 11.09845093 187.33392914 10.97698975 186.12638855 C10.65632826 182.8925461 10.35655457 179.65755046 10.06554151 176.42093015 C9.75031892 172.97199948 9.40819964 169.52573392 9.06907654 166.0790863 C8.42383509 159.47998517 7.80224494 152.87887699 7.18918222 146.27671713 C6.51332307 139.00847949 5.81397627 131.74258407 5.11117864 124.47690892 C4.21315997 115.19199981 3.31944025 105.90671047 2.4425354 96.61978149 C1.08765721 82.27845148 -0.29408702 67.94069481 -1.74658203 53.60888672 C-1.88891629 52.20188274 -2.03124681 50.79487839 -2.17357349 49.38787365 C-2.84326659 42.7743645 -3.51860474 36.1614694 -4.20054626 29.54920959 C-4.43988286 27.19810124 -4.67911131 24.84698187 -4.91821289 22.49584961 C-5.02860209 21.44256659 -5.13899128 20.38928356 -5.2527256 19.30408287 C-6.77968798 4.18809597 -6.77968798 4.18809597 -4.6875 1 C-3 0 -3 0 0 0 Z " fill="#FD6767" transform="translate(108,126)"/>
<path d="M0 0 C1.35619904 0.0037369 2.7124008 0.00658067 4.06860352 0.00857544 C7.61301315 0.0161587 11.15725508 0.03576055 14.70159912 0.0579834 C18.32838677 0.07855716 21.95520189 0.08760165 25.58203125 0.09765625 C32.6797555 0.11901229 39.77736672 0.15308292 46.875 0.1953125 C46.875 3.1653125 46.875 6.1353125 46.875 9.1953125 C46.15582901 9.20117874 45.43665802 9.20704498 44.69569397 9.21308899 C37.88472307 9.27123523 31.07402686 9.34343576 24.26337528 9.43102741 C20.7627656 9.47556358 17.26226781 9.51485519 13.76147461 9.54174805 C9.72741123 9.57297567 5.69395464 9.62775651 1.66015625 9.68359375 C0.41605484 9.68998367 -0.82804657 9.6963736 -2.10984802 9.70295715 C-10.80139675 9.84868811 -18.2025277 10.60408487 -25.125 16.1953125 C-26.115 16.1953125 -27.105 16.1953125 -28.125 16.1953125 C-28.2796875 17.2471875 -28.2796875 17.2471875 -28.4375 18.3203125 C-29.125 21.1953125 -29.125 21.1953125 -30.63598633 23.83251953 C-32.48359257 28.00515905 -32.59972331 31.36855251 -32.63671875 35.875 C-32.65466995 36.68776398 -32.67262115 37.50052795 -32.69111633 38.33792114 C-32.74498358 40.9153333 -32.77903836 43.4925628 -32.8125 46.0703125 C-32.84569399 47.82554612 -32.88018557 49.58075571 -32.91601562 51.3359375 C-33.00069611 55.62226353 -33.06761897 59.90853762 -33.125 64.1953125 C-36.095 64.1953125 -39.065 64.1953125 -42.125 64.1953125 C-42.30033609 59.040046 -42.42611957 53.8865785 -42.50952148 48.72900391 C-42.54434717 46.98129994 -42.59182795 45.23379398 -42.65307617 43.48681641 C-43.05218869 31.79516745 -42.57004388 21.80741807 -35.125 12.1953125 C-32.89233398 11.33154297 -32.89233398 11.33154297 -31.125 11.1953125 C-31.125 10.2053125 -31.125 9.2153125 -31.125 8.1953125 C-30.135 8.1953125 -29.145 8.1953125 -28.125 8.1953125 C-27.795 7.2053125 -27.465 6.2153125 -27.125 5.1953125 C-19.19050418 -0.81566918 -9.44181712 -0.07537746 0 0 Z " fill="#EFEAF3" transform="translate(220.125,29.8046875)"/>
<path d="M0 0 C0.33 0 0.66 0 1 0 C1.03758423 1.0372522 1.03758423 1.0372522 1.07592773 2.09545898 C1.19152161 5.20967866 1.31441242 8.32356789 1.4375 11.4375 C1.47681641 12.52611328 1.51613281 13.61472656 1.55664062 14.73632812 C1.59853516 15.77080078 1.64042969 16.80527344 1.68359375 17.87109375 C1.72025146 18.82943115 1.75690918 19.78776855 1.79467773 20.77514648 C1.75834424 22.97138925 1.75834424 22.97138925 3 24 C5.17661366 24.10926092 7.35682307 24.14692654 9.53614807 24.15821838 C10.22712285 24.16315636 10.91809762 24.16809434 11.63001102 24.17318195 C13.96240388 24.18863006 16.29476908 24.19693722 18.62719727 24.20532227 C20.29235073 24.21489506 21.95750174 24.22490477 23.62265015 24.23532104 C28.15755458 24.26244113 32.6924695 24.2834121 37.22741055 24.30332303 C41.96135463 24.32513892 46.69526613 24.35254905 51.42918396 24.37937927 C60.39999739 24.42936581 69.37082883 24.47428244 78.34167761 24.51740164 C88.55192704 24.56672318 98.76214382 24.6216601 108.97236168 24.67708123 C129.98154404 24.79099274 150.99075757 24.89781171 172 25 C172 25.33 172 25.66 172 26 C163.73933062 27.05322042 155.53592851 27.15796478 147.21875 27.17358398 C145.75255644 27.17990218 144.28636477 27.18666934 142.82017517 27.19384766 C139.68333331 27.20842004 136.54649837 27.22018288 133.40963745 27.22979546 C128.45152374 27.24533692 123.49347206 27.26927974 118.53540039 27.29469299 C104.44405025 27.3656795 90.35266702 27.42586904 76.26123047 27.47680664 C68.4632378 27.50506821 60.66530934 27.54041134 52.86738396 27.58346039 C47.93549743 27.6102616 43.00368332 27.62814724 38.07173824 27.63949764 C35.01347745 27.64859653 31.95530556 27.66594283 28.89709663 27.68567657 C27.47566684 27.69317354 26.05421431 27.69723442 24.63276482 27.69767189 C22.69842797 27.69874836 20.76411191 27.71312109 18.82983398 27.72825623 C17.20391579 27.73460413 17.20391579 27.73460413 15.54515076 27.74108028 C12.83251302 27.74621302 12.83251302 27.74621302 11 30 C10.97177601 32.8677479 11.06639388 35.6126099 11.26860046 38.46618652 C11.32179465 39.31801309 11.37498884 40.16983966 11.42979497 41.04747915 C12.00691302 49.89548316 12.82857888 58.71823616 13.70239258 67.54101562 C13.87370101 69.30244453 14.04468603 71.06390491 14.21537781 72.82539368 C14.7688462 78.51963334 15.33138486 84.21296072 15.89453125 89.90625 C16.08920559 91.87963866 16.28382788 93.85303246 16.47839928 95.82643127 C17.39109393 105.0772747 18.30805508 114.3276829 19.2303198 123.57757711 C20.29222191 134.22955103 21.33888144 144.8828852 22.3730877 155.53758287 C23.17648511 163.80420256 23.99381957 172.06937087 24.82172316 180.33357191 C25.31484192 185.25938338 25.80186859 190.18561981 26.27411842 195.11347961 C26.71701001 199.73147947 27.17708562 204.34743926 27.65063667 208.96239281 C27.82147393 210.65692381 27.98601852 212.35210249 28.14387894 214.04789162 C28.35986895 216.35785281 28.59817761 218.66443209 28.84236145 220.97155762 C28.97011365 222.26412224 29.09786585 223.55668686 29.22948933 224.8884201 C29.72360592 228.09412046 29.72360592 228.09412046 32.07235241 229.93927765 C32.70847611 230.28931602 33.34459982 230.6393544 34 231 C32.68 231.33 31.36 231.66 30 232 C27.60923952 229.16227446 26.59294178 227.21068325 26.19181824 223.52764893 C26.08695508 222.61779613 25.98209192 221.70794334 25.87405109 220.77051926 C25.72019585 219.25844328 25.72019585 219.25844328 25.56323242 217.71582031 C25.44280925 216.6273946 25.32238607 215.53896889 25.19831371 214.41756058 C24.85808889 211.29799456 24.53082413 208.17740143 24.21104002 205.05568123 C23.99404618 202.94200553 23.77373943 200.82869589 23.55270767 198.71543884 C22.42506458 187.91400839 21.33977744 177.10846923 20.26302361 166.30186367 C19.79608804 161.6196509 19.32669259 156.93768454 18.85771179 152.25567627 C18.07353259 144.42290605 17.29140862 136.58993266 16.51049805 128.75683594 C15.60856506 119.71011766 14.70301502 110.66376664 13.79566032 101.61759067 C13.01246736 93.80833771 12.23120025 85.99889384 11.45154923 78.18928647 C10.98760132 73.54202957 10.52299249 68.89484138 10.0566349 64.24782562 C9.62016808 59.89758784 9.18611917 55.54711549 8.7539444 51.19644928 C8.5951615 49.6020104 8.43553649 48.00765512 8.27500725 46.41339111 C8.05611342 44.23811557 7.84027146 42.06255799 7.62519836 39.88690186 C7.44299728 38.06206331 7.44299728 38.06206331 7.25711536 36.20035934 C7.03584554 33.44617566 6.94787715 30.76064228 7 28 C6.236875 27.896875 5.47375 27.79375 4.6875 27.6875 C1.69716757 26.92253124 0.81337188 26.44664439 -1 24 C-1.2487793 21.45629883 -1.2487793 21.45629883 -1.07421875 18.45703125 C-1.01943359 17.38388672 -0.96464844 16.31074219 -0.90820312 15.20507812 C-0.83537109 14.08552734 -0.76253906 12.96597656 -0.6875 11.8125 C-0.62626953 10.68134766 -0.56503906 9.55019531 -0.50195312 8.38476562 C-0.34858501 5.58874697 -0.18072046 2.79436237 0 0 Z " fill="#870A0A" transform="translate(92,99)"/>
<path d="M0 0 C1.22154282 -0.0033284 2.44308563 -0.0066568 3.7016449 -0.01008606 C6.27057524 -0.01511436 8.83951201 -0.01749566 11.40844727 -0.01733398 C15.27436479 -0.01951197 19.13999244 -0.03768909 23.00585938 -0.05664062 C54.79133738 -0.12834045 54.79133738 -0.12834045 69.74609375 3.16796875 C69.41609375 3.82796875 69.08609375 4.48796875 68.74609375 5.16796875 C51.15322171 8.59336777 32.26523282 7.35600461 14.41943359 7.35327148 C11.63714117 7.35319005 8.8550128 7.36017949 6.07275391 7.3737793 C-20.47382809 7.50133031 -20.47382809 7.50133031 -33.16015625 6.28125 C-33.9847937 6.20351852 -34.80943115 6.12578705 -35.65905762 6.04570007 C-37.53492039 5.83409423 -39.39800553 5.51332462 -41.25390625 5.16796875 C-41.58390625 4.50796875 -41.91390625 3.84796875 -42.25390625 3.16796875 C-39.8585677 2.85125518 -37.46272641 2.53960063 -35.06640625 2.23046875 C-34.08510742 2.09995117 -34.08510742 2.09995117 -33.08398438 1.96679688 C-22.07493057 0.55805539 -11.09344022 0.01084 0 0 Z " fill="#FFFFFF" transform="translate(140.25390625,97.83203125)"/>
<path d="M0 0 C1.35476979 0.00373811 2.70954232 0.0065813 4.0643158 0.00857544 C7.60049123 0.01614918 11.13649789 0.03574246 14.67260742 0.0579834 C18.29278278 0.07857807 21.91298586 0.08760605 25.53320312 0.09765625 C32.61465166 0.11899542 39.69598659 0.15305405 46.77734375 0.1953125 C46.77734375 1.1853125 46.77734375 2.1753125 46.77734375 3.1953125 C45.69858727 3.20411186 45.69858727 3.20411186 44.59803772 3.21308899 C37.78706682 3.27123523 30.97637061 3.34343576 24.16571903 3.43102741 C20.66510935 3.47556358 17.16461156 3.51485519 13.66381836 3.54174805 C9.62975498 3.57297567 5.59629839 3.62775651 1.5625 3.68359375 C0.31839859 3.68998367 -0.92570282 3.6963736 -2.20750427 3.70295715 C-10.899053 3.84868811 -18.30018395 4.60408487 -25.22265625 10.1953125 C-26.21265625 10.1953125 -27.20265625 10.1953125 -28.22265625 10.1953125 C-28.37734375 11.2471875 -28.37734375 11.2471875 -28.53515625 12.3203125 C-29.22265625 15.1953125 -29.22265625 15.1953125 -30.73364258 17.83251953 C-32.58124882 22.00515905 -32.69737956 25.36855251 -32.734375 29.875 C-32.7523262 30.68776398 -32.7702774 31.50052795 -32.78877258 32.33792114 C-32.84263983 34.9153333 -32.87669461 37.4925628 -32.91015625 40.0703125 C-32.94335024 41.82554612 -32.97784182 43.58075571 -33.01367188 45.3359375 C-33.09835236 49.62226353 -33.16527522 53.90853762 -33.22265625 58.1953125 C-36.19265625 58.1953125 -39.16265625 58.1953125 -42.22265625 58.1953125 C-42.27207007 52.83847401 -42.30838232 47.481768 -42.33251953 42.12475586 C-42.34258116 40.30214121 -42.35623185 38.47954271 -42.37353516 36.65698242 C-42.39777646 34.03820815 -42.40913763 31.41964719 -42.41796875 28.80078125 C-42.42829132 27.98506149 -42.43861389 27.16934174 -42.44924927 26.3289032 C-42.45002485 22.42400494 -42.43916286 20.52007242 -40.22265625 17.1953125 C-40.55265625 30.3953125 -40.88265625 43.5953125 -41.22265625 57.1953125 C-39.24265625 57.1953125 -37.26265625 57.1953125 -35.22265625 57.1953125 C-35.24884033 56.03596191 -35.27502441 54.87661133 -35.30200195 53.68212891 C-35.39318262 49.33988089 -35.4501497 44.99771572 -35.49731445 40.65478516 C-35.52230523 38.78289513 -35.55630998 36.91110115 -35.59985352 35.03955078 C-36.052514 15.06923537 -36.052514 15.06923537 -30.22265625 7.1953125 C-29.23265625 7.1953125 -28.24265625 7.1953125 -27.22265625 7.1953125 C-27.22265625 6.5353125 -27.22265625 5.8753125 -27.22265625 5.1953125 C-25.90265625 4.8653125 -24.58265625 4.5353125 -23.22265625 4.1953125 C-23.22265625 3.5353125 -23.22265625 2.8753125 -23.22265625 2.1953125 C-15.41124641 0.05854256 -8.06932757 -0.06467855 0 0 Z " fill="#DBD3E4" transform="translate(220.22265625,35.8046875)"/>
<path d="M0 0 C0.33 0 0.66 0 1 0 C1.03758423 1.0372522 1.03758423 1.0372522 1.07592773 2.09545898 C1.19152161 5.20967866 1.31441242 8.32356789 1.4375 11.4375 C1.47681641 12.52611328 1.51613281 13.61472656 1.55664062 14.73632812 C1.59853516 15.77080078 1.64042969 16.80527344 1.68359375 17.87109375 C1.72025146 18.82943115 1.75690918 19.78776855 1.79467773 20.77514648 C1.75834424 22.97138925 1.75834424 22.97138925 3 24 C5.17661366 24.10926092 7.35682307 24.14692654 9.53614807 24.15821838 C10.22712285 24.16315636 10.91809762 24.16809434 11.63001102 24.17318195 C13.96240388 24.18863006 16.29476908 24.19693722 18.62719727 24.20532227 C20.29235073 24.21489506 21.95750174 24.22490477 23.62265015 24.23532104 C28.15755458 24.26244113 32.6924695 24.2834121 37.22741055 24.30332303 C41.96135463 24.32513892 46.69526613 24.35254905 51.42918396 24.37937927 C60.39999739 24.42936581 69.37082883 24.47428244 78.34167761 24.51740164 C88.55192704 24.56672318 98.76214382 24.6216601 108.97236168 24.67708123 C129.98154404 24.79099274 150.99075757 24.89781171 172 25 C172 25.33 172 25.66 172 26 C163.74369114 27.05507329 155.5474861 27.15169895 147.23461914 27.15771484 C145.77004853 27.16239289 144.30547935 27.16753806 142.84091187 27.17311096 C139.70734357 27.18431539 136.57378435 27.19278548 133.44020271 27.19923019 C128.48601432 27.20997531 123.53189258 27.23023175 118.57774353 27.25234985 C104.49741633 27.31407361 90.41709618 27.36840183 76.33666992 27.40136719 C68.54487106 27.41968854 60.75318698 27.44857905 52.96147245 27.4893719 C48.8428624 27.51045657 44.72439693 27.5259015 40.60573006 27.52817917 C36.74042319 27.53031996 32.87541905 27.54613025 29.01020432 27.57256889 C27.59080993 27.57978089 26.17137895 27.58185368 24.75197029 27.57846642 C22.81798853 27.57458733 20.88399719 27.59074809 18.9500885 27.60800171 C17.32555299 27.61296693 17.32555299 27.61296693 15.66819859 27.61803246 C12.99708909 27.79344376 12.99708909 27.79344376 11.17108822 29.29403114 C9.32538176 31.98274212 9.30055711 34.81409461 9 38 C8.67 38 8.34 38 8 38 C7.67 34.7 7.34 31.4 7 28 C6.236875 27.896875 5.47375 27.79375 4.6875 27.6875 C1.69716757 26.92253124 0.81337188 26.44664439 -1 24 C-1.2487793 21.45629883 -1.2487793 21.45629883 -1.07421875 18.45703125 C-1.01943359 17.38388672 -0.96464844 16.31074219 -0.90820312 15.20507812 C-0.83537109 14.08552734 -0.76253906 12.96597656 -0.6875 11.8125 C-0.62626953 10.68134766 -0.56503906 9.55019531 -0.50195312 8.38476562 C-0.34858501 5.58874697 -0.18072046 2.79436237 0 0 Z " fill="#913034" transform="translate(92,99)"/>
<path d="M0 0 C1.13154163 3.52035172 1.13154163 3.52035172 0.54711914 5.65136719 C-0.23749387 9.0194962 -0.23685228 12.38623551 -0.31640625 15.828125 C-0.3475779 16.95163361 -0.3475779 16.95163361 -0.37937927 18.09783936 C-0.44457088 20.48180288 -0.50361783 22.86587312 -0.5625 25.25 C-0.60571416 26.86980254 -0.64932937 28.48959443 -0.69335938 30.109375 C-0.80022096 34.07280832 -0.90157333 38.0363486 -1 42 C-2.49337639 42.0154612 -2.49337639 42.0154612 -4.016922 42.03123474 C-13.39023293 42.12890648 -22.76347656 42.23163467 -32.13667774 42.33933926 C-36.95575988 42.39455063 -41.7748481 42.44796783 -46.59399414 42.49731445 C-51.24298621 42.54498427 -55.89190412 42.59732813 -60.54080772 42.65294075 C-62.31623175 42.67335242 -64.0916761 42.69206747 -65.867136 42.70907402 C-68.35005682 42.73314427 -70.83283749 42.7631953 -73.31567383 42.79467773 C-74.05294708 42.8004332 -74.79022034 42.80618866 -75.54983521 42.81211853 C-78.63110834 42.85665414 -81.05388911 43.01796304 -84 44 C-84.9731681 46.9195043 -85.1929546 49.05444951 -85.31640625 52.10546875 C-85.35830078 53.08837891 -85.40019531 54.07128906 -85.44335938 55.08398438 C-85.48267578 56.10814453 -85.52199219 57.13230469 -85.5625 58.1875 C-85.60568359 59.22326172 -85.64886719 60.25902344 -85.69335938 61.32617188 C-85.79944366 63.8839819 -85.90150146 66.44188845 -86 69 C-86.66 68.67 -87.32 68.34 -88 68 C-88.08745946 64.6043303 -88.14054444 61.20895227 -88.1875 57.8125 C-88.21263672 56.85279297 -88.23777344 55.89308594 -88.26367188 54.90429688 C-88.3568739 45.92583557 -88.3568739 45.92583557 -85 42 C-81.92730298 40.46365149 -78.70798882 40.87032175 -75.33740234 40.88647461 C-74.54707108 40.88632858 -73.75673981 40.88618256 -72.94245911 40.8860321 C-70.32359089 40.88673017 -67.70479333 40.89451761 -65.0859375 40.90234375 C-63.27275634 40.90420831 -61.45957467 40.90563203 -59.64639282 40.90663147 C-54.86896377 40.91045368 -50.09156501 40.92028145 -45.31414795 40.93133545 C-40.44120697 40.94155593 -35.5682611 40.94613046 -30.6953125 40.95117188 C-21.13019501 40.96190397 -11.56510002 40.97897686 -2 41 C-2.01047363 39.93563721 -2.02094727 38.87127441 -2.03173828 37.7746582 C-2.06802076 33.81440614 -2.09093045 29.8541687 -2.10986328 25.89379883 C-2.11990208 24.18185961 -2.13353595 22.46993745 -2.15087891 20.75805664 C-2.17522073 18.29308858 -2.18650438 15.82834785 -2.1953125 13.36328125 C-2.20563507 12.60163162 -2.21595764 11.83998199 -2.22659302 11.05525208 C-2.22746036 6.91917259 -1.85778997 3.7187941 0 0 Z " fill="#780001" transform="translate(178,52)"/>
<path d="M0 0 C1.98 0 3.96 0 6 0 C6.13277344 1.24136719 6.26554687 2.48273438 6.40234375 3.76171875 C6.58061151 5.40365861 6.75900346 7.04558499 6.9375 8.6875 C7.02451172 9.50412109 7.11152344 10.32074219 7.20117188 11.16210938 C7.63758728 15.15450219 8.11302376 19.07652852 9 23 C6 24 6 24 3.375 23.25 C0.03875091 20.08934297 0.26114137 17.47169522 0.046875 13.0078125 C0.03140625 12.01523437 0.0159375 11.02265625 0 10 C-0.01546875 9.02804687 -0.0309375 8.05609375 -0.046875 7.0546875 C-0.06028323 4.70154311 -0.04592995 2.35263385 0 0 Z " fill="#EA6060" transform="translate(120,306)"/>
<path d="M0 0 C0.66 0.33 1.32 0.66 2 1 C2.0875127 4.22899426 2.14056146 7.45768116 2.1875 10.6875 C2.21263672 11.59951172 2.23777344 12.51152344 2.26367188 13.45117188 C2.35728419 22.03230051 2.35728419 22.03230051 -1 26 C-4 28 -4 28 -7 28 C-7.06058594 29.02480469 -7.12117188 30.04960937 -7.18359375 31.10546875 C-7.26805026 32.46615695 -7.35269567 33.82683343 -7.4375 35.1875 C-7.47681641 35.86103516 -7.51613281 36.53457031 -7.55664062 37.22851562 C-7.78927565 40.89699102 -8.17207011 44.41694206 -9 48 C-9.33 48 -9.66 48 -10 48 C-10.03738281 46.74703125 -10.07476562 45.4940625 -10.11328125 44.203125 C-10.17894885 42.55205379 -10.24539593 40.90101345 -10.3125 39.25 C-10.33505859 38.425 -10.35761719 37.6 -10.38085938 36.75 C-10.61548917 30.79314143 -10.61548917 30.79314143 -14 26 C-13.31292969 25.97421875 -12.62585938 25.9484375 -11.91796875 25.921875 C-11.01691406 25.86515625 -10.11585938 25.8084375 -9.1875 25.75 C-8.29417969 25.70359375 -7.40085937 25.6571875 -6.48046875 25.609375 C-3.26885287 24.8203796 -2.69089409 23.79177408 -1 21 C-0.50241248 18.59445706 -0.50241248 18.59445706 -0.48828125 16.015625 C-0.45283203 15.08105469 -0.41738281 14.14648438 -0.38085938 13.18359375 C-0.35830078 12.21550781 -0.33574219 11.24742188 -0.3125 10.25 C-0.27833984 9.26644531 -0.24417969 8.28289062 -0.20898438 7.26953125 C-0.12664727 4.84646801 -0.05745162 2.42376002 0 0 Z " fill="#7A0202" transform="translate(268,99)"/>
<path d="M0 0 C1.32421806 2.92833931 1.05267718 5.81788258 0.87890625 8.984375 C0.83056641 9.91894531 0.78222656 10.85351562 0.73242188 11.81640625 C0.67634766 12.78449219 0.62027344 13.75257812 0.5625 14.75 C0.51029297 15.73355469 0.45808594 16.71710938 0.40429688 17.73046875 C0.27488563 20.15398849 0.13993095 22.57706864 0 25 C-0.33 25 -0.66 25 -1 25 C-1.029729 24.01604248 -1.029729 24.01604248 -1.06005859 23.01220703 C-1.15512507 20.04938931 -1.26487752 17.08729468 -1.375 14.125 C-1.4059375 13.09246094 -1.436875 12.05992188 -1.46875 10.99609375 C-1.50742187 10.00996094 -1.54609375 9.02382812 -1.5859375 8.0078125 C-1.6173584 7.09660645 -1.6487793 6.18540039 -1.68115234 5.24658203 C-1.79882511 2.80068814 -1.79882511 2.80068814 -4 1 C-6.46710643 0.78284399 -8.82549782 0.6886374 -11.29541016 0.68115234 C-12.04672714 0.67110672 -12.79804413 0.6610611 -13.5721283 0.65071106 C-16.06109841 0.61976449 -18.54996043 0.60281235 -21.0390625 0.5859375 C-22.76257261 0.56723505 -24.48607348 0.54766234 -26.20956421 0.5272522 C-30.75018881 0.47582735 -35.29084314 0.43625722 -39.831604 0.39910889 C-44.46333226 0.35913396 -49.09493578 0.308012 -53.7265625 0.2578125 C-62.81762084 0.16093073 -71.90874945 0.07656533 -81 0 C-81 -0.33 -81 -0.66 -81 -1 C-71.17736639 -1.17712834 -61.35461343 -1.34307253 -51.53155231 -1.49477577 C-46.97022079 -1.5655698 -42.40901966 -1.64020206 -37.84790039 -1.72363281 C-33.44545125 -1.80401954 -29.04294578 -1.87428893 -24.64021873 -1.93757248 C-22.96126553 -1.96347831 -21.2823643 -1.99301758 -19.60354042 -2.02626419 C-17.25045823 -2.07224028 -14.897522 -2.10524575 -12.54418945 -2.13525391 C-11.50516983 -2.16006584 -11.50516983 -2.16006584 -10.44515991 -2.18537903 C-6.52181625 -2.21976456 -3.48711634 -1.85257373 0 0 Z " fill="#851516" transform="translate(268,95)"/>
<path d="M0 0 C0.33 5.28 0.66 10.56 1 16 C-0.65 16 -2.3 16 -4 16 C-4 17.98 -4 19.96 -4 22 C-4.33 22 -4.66 22 -5 22 C-5.25494218 18.89738494 -5.47447008 15.79325198 -5.6875 12.6875 C-5.76033203 11.80642578 -5.83316406 10.92535156 -5.90820312 10.01757812 C-5.96298828 9.17001953 -6.01777344 8.32246094 -6.07421875 7.44921875 C-6.13182373 6.66893311 -6.18942871 5.88864746 -6.2487793 5.0847168 C-6 3 -6 3 -4.68286133 1.22192383 C-3 0 -3 0 0 0 Z " fill="#E95E5E" transform="translate(108,126)"/>
<path d="M0 0 C-0.99 0 -1.98 0 -3 0 C-3 0.99 -3 1.98 -3 3 C-3.59039062 3.12632813 -4.18078125 3.25265625 -4.7890625 3.3828125 C-9.80825027 4.78392852 -13.02742744 7.48687289 -15.78515625 11.77734375 C-17.26155163 14.48930407 -18.66822243 17.21448722 -20 20 C-21.41834826 16.24137712 -20.58436608 14.10443284 -19 10.5 C-16.43317943 5.14532709 -14.44524046 3.23643805 -9 1 C-7.6696875 0.3503125 -7.6696875 0.3503125 -6.3125 -0.3125 C-3.74981778 -1.0743785 -2.47788808 -0.91773632 0 0 Z " fill="#841718" transform="translate(208,41)"/>
<path d="M0 0 C0.33 0 0.66 0 1 0 C2.15144911 8.72604207 1.95391219 15.67230405 -1 24 C-1.33 24 -1.66 24 -2 24 C-1.85790331 21.3122562 -1.7114277 18.62486698 -1.5625 15.9375 C-1.52318359 15.18533203 -1.48386719 14.43316406 -1.44335938 13.65820312 C-1.18419281 9.05301259 -0.7200579 4.55633276 0 0 Z " fill="#8F1010" transform="translate(257,139)"/>
<path d="M0 0 C0.33 0 0.66 0 1 0 C1.22278071 2.56197812 1.42862563 5.12347556 1.625 7.6875 C1.72167969 8.7693457 1.72167969 8.7693457 1.8203125 9.87304688 C2.13102342 14.12590254 1.97020088 17.18743571 0 21 C-0.33 21 -0.66 21 -1 21 C-1.10808032 13.90272572 -0.93854006 7.03905044 0 0 Z " fill="#8D0F0F" transform="translate(243,276)"/>
<path d="M0 0 C0.66 0 1.32 0 2 0 C3.59412284 3.18824568 3.10174735 6.62896662 3.0625 10.125 C3.05798828 10.87910156 3.05347656 11.63320312 3.04882812 12.41015625 C3.03703499 14.27347127 3.01909942 16.13674555 3 18 C0.59880941 14.39821412 0.56228678 11.49133631 0.375 7.3125 C0.33632812 6.61060547 0.29765625 5.90871094 0.2578125 5.18554688 C0.1637666 3.45745345 0.0808032 1.72876325 0 0 Z " fill="#7F0505" transform="translate(104,177)"/>
<path d="M0 0 C0.33 0 0.66 0 1 0 C1.99250545 5.70690634 2.10477512 11.21408489 2 17 C1.34 17 0.68 17 0 17 C-0.77313045 11.0885256 -1.14819277 5.8685408 0 0 Z " fill="#880C0C" transform="translate(101,130)"/>
<path d="M0 0 C0.66 0.33 1.32 0.66 2 1 C0.74194623 5.50802601 -0.90407165 8.4912812 -4 12 C-3.5317879 7.22423661 -2.75668002 3.95523655 0 0 Z " fill="#8A2426" transform="translate(191,49)"/>
<path d="M0 0 C0.33 0 0.66 0 1 0 C1.24900646 1.93505023 1.47356242 3.87325934 1.6875 5.8125 C1.81511719 6.89144531 1.94273437 7.97039062 2.07421875 9.08203125 C2 12 2 12 0.64453125 13.88671875 C-1 15 -1 15 -3 15 C-2.690625 14.195625 -2.38125 13.39125 -2.0625 12.5625 C-0.81434483 8.37750913 -0.3662304 4.33693899 0 0 Z " fill="#8D0F0F" transform="translate(239,316)"/>
</svg>
